<svg width="38" height="38" viewBox="0 0 38 38" fill="none" xmlns="http://www.w3.org/2000/svg">
<path d="M25.3333 36.0208H12.6667C5.35167 36.0208 3.99 32.6166 3.64167 29.3075L2.45417 16.625C2.28 14.9625 2.2325 12.5083 3.87917 10.6716C5.30417 9.08831 7.66334 8.32831 11.0833 8.32831H26.9167C30.3525 8.32831 32.7117 9.10414 34.1208 10.6716C35.7675 12.5083 35.72 14.9625 35.5458 16.6408L34.3583 29.2916C34.01 32.6166 32.6483 36.0208 25.3333 36.0208ZM11.0833 10.6875C8.4075 10.6875 6.57084 11.21 5.63667 12.255C4.86084 13.11 4.6075 14.4241 4.81334 16.3875L6.00084 29.07C6.27 31.5716 6.95084 33.6458 12.6667 33.6458H25.3333C31.0333 33.6458 31.73 31.5716 31.9992 29.0541L33.1867 16.4033C33.3925 14.4241 33.1392 13.11 32.3633 12.255C31.4292 11.21 29.5925 10.6875 26.9167 10.6875H11.0833Z" fill="#324DDC"/>
<path d="M25.3333 10.6875C24.6842 10.6875 24.1458 10.1492 24.1458 9.50002V8.23335C24.1458 5.41502 24.1458 4.35419 20.2667 4.35419H17.7333C13.8542 4.35419 13.8542 5.41502 13.8542 8.23335V9.50002C13.8542 10.1492 13.3158 10.6875 12.6667 10.6875C12.0175 10.6875 11.4792 10.1492 11.4792 9.50002V8.23335C11.4792 5.44669 11.4792 1.97919 17.7333 1.97919H20.2667C26.5208 1.97919 26.5208 5.44669 26.5208 8.23335V9.50002C26.5208 10.1492 25.9825 10.6875 25.3333 10.6875Z" fill="#324DDC"/>
<path d="M19 26.5208C14.6458 26.5208 14.6458 23.8292 14.6458 22.2142V20.5833C14.6458 18.3508 15.1842 17.8125 17.4167 17.8125H20.5833C22.8158 17.8125 23.3542 18.3508 23.3542 20.5833V22.1667C23.3542 23.8133 23.3542 26.5208 19 26.5208ZM17.0208 20.1875C17.0208 20.3142 17.0208 20.4567 17.0208 20.5833V22.2142C17.0208 23.845 17.0208 24.1458 19 24.1458C20.9792 24.1458 20.9792 23.8925 20.9792 22.1983V20.5833C20.9792 20.4567 20.9792 20.3142 20.9792 20.1875C20.8525 20.1875 20.71 20.1875 20.5833 20.1875H17.4167C17.29 20.1875 17.1475 20.1875 17.0208 20.1875Z" fill="#324DDC"/>
<path d="M22.1667 23.3858C21.5808 23.3858 21.0583 22.9425 20.995 22.3408C20.9158 21.6916 21.375 21.09 22.0242 21.0108C26.2042 20.4883 30.21 18.905 33.5825 16.4508C34.105 16.055 34.8492 16.1816 35.245 16.72C35.625 17.2425 35.5142 17.9866 34.9758 18.3825C31.2708 21.0741 26.9008 22.8 22.3092 23.3858C22.2617 23.3858 22.2142 23.3858 22.1667 23.3858Z" fill="#324DDC"/>
<path d="M15.8333 23.4017C15.7858 23.4017 15.7383 23.4017 15.6908 23.4017C11.3525 22.9108 7.12502 21.3275 3.46752 18.8258C2.92918 18.4617 2.78668 17.7175 3.15085 17.1792C3.51502 16.6408 4.25918 16.4983 4.79752 16.8625C8.13835 19.1425 11.9858 20.5833 15.9442 21.0425C16.5933 21.1217 17.0683 21.7075 16.9892 22.3567C16.9417 22.9583 16.435 23.4017 15.8333 23.4017Z" fill="#324DDC"/>
</svg>
