<svg width="38" height="38" viewBox="0 0 38 38" fill="none" xmlns="http://www.w3.org/2000/svg">
<path d="M6.22248 26.3308C5.92165 26.3308 5.62082 26.22 5.38332 25.9825C4.92415 25.5233 4.92415 24.7633 5.38332 24.3042L24.3041 5.38332C24.7633 4.92415 25.5233 4.92415 25.9825 5.38332C26.4416 5.84248 26.4416 6.60248 25.9825 7.06165L7.06165 25.9983C6.83998 26.22 6.52332 26.3308 6.22248 26.3308Z" fill="#324DDC"/>
<path d="M17.575 30.1308C17.2742 30.1308 16.9734 30.0199 16.7359 29.7824C16.2767 29.3233 16.2767 28.5633 16.7359 28.1041L18.6359 26.2041C19.095 25.7449 19.855 25.7449 20.3142 26.2041C20.7734 26.6633 20.7734 27.4233 20.3142 27.8825L18.4142 29.7824C18.1925 30.0041 17.8917 30.1308 17.575 30.1308Z" fill="#324DDC"/>
<path d="M21.8342 25.8716C21.5333 25.8716 21.2325 25.7608 20.995 25.5233C20.5358 25.0641 20.5358 24.3041 20.995 23.845L24.7792 20.0608C25.2383 19.6016 25.9983 19.6016 26.4575 20.0608C26.9167 20.52 26.9167 21.28 26.4575 21.7391L22.6733 25.5233C22.4517 25.745 22.135 25.8716 21.8342 25.8716Z" fill="#324DDC"/>
<path d="M17.575 36.0209C16.0234 36.0209 14.4717 35.0709 12.5875 33.1867L4.81336 25.4125C1.02919 21.6284 1.04503 19.19 4.86086 15.3742L15.3742 4.86086C19.19 1.04503 21.6284 1.02919 25.4125 4.81336L33.1867 12.5875C36.9709 16.3717 36.955 18.81 33.1392 22.6259L22.6259 33.1392C20.71 35.055 19.1425 36.0209 17.575 36.0209ZM20.425 4.35419C19.6017 4.35419 18.5567 5.03503 17.0525 6.53919L6.53919 17.0525C5.03503 18.5567 4.35419 19.6017 4.35419 20.4092C4.35419 21.2325 4.98753 22.23 6.49169 23.7342L14.2659 31.5084C15.77 33.0125 16.7517 33.6459 17.575 33.6459C17.575 33.6459 17.575 33.6459 17.5909 33.6459C18.4142 33.6459 19.4434 32.965 20.9475 31.4609L31.4609 20.9475C32.965 19.4434 33.6459 18.3984 33.6459 17.5909C33.6459 16.7675 33.0125 15.77 31.5084 14.2659L23.7342 6.49169C22.2459 4.98753 21.2484 4.35419 20.425 4.35419Z" fill="#324DDC"/>
<path d="M34.8334 36.0209H3.16669C2.51752 36.0209 1.97919 35.4825 1.97919 34.8334C1.97919 34.1842 2.51752 33.6459 3.16669 33.6459H34.8334C35.4825 33.6459 36.0209 34.1842 36.0209 34.8334C36.0209 35.4825 35.4825 36.0209 34.8334 36.0209Z" fill="#324DDC"/>
</svg>
