<svg width="210" height="32" viewBox="0 0 210 32" fill="none" xmlns="http://www.w3.org/2000/svg">
<path d="M28.2427 4.81768C24.6514 1.59116 20.7054 0 16.316 0C11.7937 0 7.71465 1.67956 4.69973 4.72928C1.64047 7.77901 0 11.7127 0 16C0 20.2873 1.64047 24.2652 4.65539 27.3149C7.67031 30.3646 11.6606 32 16.0943 32C22.0355 32 27.1786 28.7293 29.7945 23.337C31.1246 20.6409 31.6567 17.4586 31.6567 13.5691C31.6567 13.1713 31.6567 12.7293 31.6567 12.2873H15.4736V19.1381H23.0996C21.9025 22.4088 19.2866 24.3094 16.05 24.3094C11.4833 24.3094 7.93633 20.7293 7.93633 15.9558C7.93633 11.0497 11.6163 7.38122 16.316 7.38122C18.6659 7.38122 20.8384 8.35359 23.0553 10.2983L28.2427 4.81768Z" fill="white"/>
<path d="M34.1146 20.5083C34.1146 23.6022 35.2673 26.3425 37.3955 28.5525C39.4794 30.674 42.2283 31.8674 45.1988 31.8674C48.1694 31.8674 50.9627 30.7182 53.0465 28.5525C55.1747 26.3867 56.2831 23.558 56.2831 20.5083C56.2831 17.4586 55.1747 14.6298 53.0465 12.4641C50.9627 10.2983 48.1694 9.14917 45.1988 9.14917C42.2283 9.14917 39.4794 10.3425 37.3955 12.4641C35.2673 14.674 34.1146 17.4144 34.1146 20.5083ZM41.2085 20.4641C41.2085 17.9448 43.0263 16 45.1988 16C47.3714 16 49.2335 17.9448 49.2335 20.4641C49.2335 22.9834 47.3714 24.9282 45.1988 24.9282C43.0263 24.9282 41.2085 22.9834 41.2085 20.4641Z" fill="white"/>
<path d="M59.4657 31.4254H67.1803V11.0497C67.1803 8.22099 68.3774 6.76243 70.5056 6.76243C72.1461 6.76243 73.3875 8 73.3875 9.67956C73.3875 11.6243 72.1017 12.5967 69.5745 12.5967H68.4218V18.7845H71.0377C73.3875 18.7845 74.6733 19.9337 74.6733 21.7017C74.6733 23.4696 73.3875 24.5746 71.0377 24.5746H68.4218V31.4696H70.5943C74.8506 31.4696 77.8212 31.0276 80.3041 28.4199C81.8116 26.8287 82.6096 24.7956 82.6096 22.453C82.6096 19.0939 80.8805 16.3978 77.5995 14.895C79.8607 13.5691 81.0135 11.7127 81.0135 9.23757C81.0135 4.1105 76.5798 0 70.6386 0C64.0324 0 59.4657 4.46409 59.4657 11.2265V31.4254Z" fill="white"/>
<path d="M99.8055 31.4696H106.678V22.3204C106.678 19.8011 106.678 17.5912 105.702 15.4696C103.929 11.5801 100.116 9.14917 95.6821 9.14917C89.3419 9.14917 84.6422 13.8343 84.6422 20.4641C84.6422 27.0055 89.2533 31.779 95.6821 31.779C96.4359 31.779 97.4113 31.6906 98.697 31.4254V24.2652C97.5443 24.6188 96.6575 24.8398 95.9481 24.8398C93.2879 24.8398 91.6918 23.116 91.6918 20.4641C91.6918 17.8122 93.3323 16.1326 95.5935 16.1326C98.3867 16.1326 99.8055 17.768 99.8055 20.9945V31.4696Z" fill="white"/>
<path d="M110.471 31.4696H117.476V0.574584H110.471V31.4696Z" fill="white"/>
<path d="M121.555 31.4696H128.427V22.9834H130.91C133.171 22.9834 134.191 24.0884 134.191 26.4751V31.4696H141.063V25.6354C141.063 21.7459 139.689 19.6685 136.186 18.8287C137.561 18.3867 138.536 17.4586 139.024 16.221L141.595 9.59116H134.324L132.905 13.2597C132.018 15.558 131.265 16.6188 129.713 16.6188H128.427V0.574584H121.555V31.4696Z" fill="white"/>
<path d="M159.513 31.4696H166.386V22.3204C166.386 19.8011 166.386 17.5912 165.41 15.4696C163.637 11.5801 159.824 9.14917 155.39 9.14917C149.05 9.14917 144.35 13.8343 144.35 20.4641C144.35 27.0055 148.961 31.779 155.39 31.779C156.144 31.779 157.119 31.6906 158.405 31.4254V24.2652C157.252 24.6188 156.365 24.8398 155.656 24.8398C152.996 24.8398 151.4 23.116 151.4 20.4641C151.4 17.8122 153.04 16.1326 155.301 16.1326C158.094 16.1326 159.513 17.768 159.513 20.9945V31.4696Z" fill="white"/>
<path d="M183.169 31.4696H190.041V20.3757C190.041 17.5912 189.687 15.3812 188.224 13.3481C186.273 10.6961 183.302 9.14917 179.977 9.14917C174.169 9.14917 169.912 13.2597 169.912 20.3757V31.4696H176.785V19.2707C176.785 17.2376 178.115 15.8232 179.977 15.8232C181.839 15.8232 183.169 17.2376 183.169 19.2707V31.4696Z" fill="white"/>
<path d="M193.241 25.2818V31.4696H200.512C203.261 31.4696 205.478 31.4696 207.295 30.2762C209.025 29.1271 210 27.3591 210 25.2818C210 22.0994 208.049 20.1105 204.015 18.4309L200.955 17.1492C200.645 17.0166 200.379 16.663 200.379 16.3094C200.379 15.8232 200.822 15.4696 201.443 15.4696H208.847V9.59116H201.354C196.389 9.59116 193.595 11.9779 193.595 15.6464C193.595 18.6077 195.369 20.7293 198.96 22.232L202.152 23.558C202.507 23.7348 202.773 24.0442 202.773 24.442C202.773 25.0166 202.33 25.2818 201.532 25.2818H193.241Z" fill="white"/>
</svg>
