<svg width="357" height="357" viewBox="0 0 357 357" fill="none" xmlns="http://www.w3.org/2000/svg">
<path d="M117.149 248.451L143.47 123.874C144.506 118.969 146.988 114.498 150.54 111.022L194.532 68.3122C201.489 61.4561 215.8 58.5878 226.077 65.1142C237.239 71.6993 242.359 86.871 237.245 98.3433L222.398 137.092C221.13 140.666 221.412 144.184 222.952 147.2C224.545 149.97 227.299 152.089 230.61 152.788L281.005 163.436C290.691 165.482 298.2 171.168 301.654 179.07C304.915 186.676 303.96 195.441 299.055 203.499L249.487 288.965C242.474 303.366 223.304 312.253 206.874 308.781L159.054 298.678C150.838 296.942 139.908 291.687 135.75 285.3L122.62 269.845C117.57 264.039 115.543 256.054 117.149 248.451Z" fill="url(#paint0_linear_29_144)"/>
<path d="M109.53 91.7256L96.9003 89.0573C77.8948 85.0418 68.6157 90.7666 64.7815 108.914L38.7197 232.265C34.8856 250.412 41.056 259.401 60.0615 263.417L72.6909 266.085C91.6963 270.101 100.975 264.376 104.81 246.229L130.871 122.877C134.706 104.73 128.535 95.7411 109.53 91.7256Z" fill="url(#paint1_linear_29_144)"/>
<defs>
<linearGradient id="paint0_linear_29_144" x1="57.1005" y1="88.5275" x2="293.47" y2="286.83" gradientUnits="userSpaceOnUse">
<stop stop-color="white" stop-opacity="0.15"/>
<stop offset="1" stop-color="white" stop-opacity="0"/>
</linearGradient>
<linearGradient id="paint1_linear_29_144" x1="57.1005" y1="88.5275" x2="293.47" y2="286.83" gradientUnits="userSpaceOnUse">
<stop stop-color="white" stop-opacity="0.15"/>
<stop offset="1" stop-color="white" stop-opacity="0"/>
</linearGradient>
</defs>
</svg>
