<svg width="134" height="20" viewBox="0 0 134 20" fill="none" xmlns="http://www.w3.org/2000/svg">
<path d="M18.0215 3.01105C15.7299 0.994474 13.212 0 10.4112 0C7.52548 0 4.92268 1.04972 2.99887 2.9558C1.04678 4.86188 0 7.32044 0 10C0 12.6796 1.04678 15.1657 2.97058 17.0718C4.89439 18.9779 7.4406 20 10.2697 20C14.0608 20 17.3425 17.9558 19.0117 14.5856C19.8605 12.9006 20.2 10.9116 20.2 8.48066C20.2 8.23204 20.2 7.9558 20.2 7.67956H9.87365V11.9613H14.7397C13.9759 14.0055 12.3067 15.1934 10.2414 15.1934C7.32744 15.1934 5.06414 12.9558 5.06414 9.97237C5.06414 6.90608 7.41231 4.61326 10.4112 4.61326C11.9106 4.61326 13.2969 5.22099 14.7115 6.43646L18.0215 3.01105Z" fill="#324DDC"/>
<path d="M21.7684 12.8177C21.7684 14.7514 22.5039 16.4641 23.8619 17.8453C25.1916 19.1713 26.9457 19.9171 28.8412 19.9171C30.7367 19.9171 32.519 19.1989 33.8487 17.8453C35.2067 16.4917 35.914 14.7238 35.914 12.8177C35.914 10.9116 35.2067 9.14365 33.8487 7.79005C32.519 6.43646 30.7367 5.71823 28.8412 5.71823C26.9457 5.71823 25.1916 6.46409 23.8619 7.79005C22.5039 9.17127 21.7684 10.884 21.7684 12.8177ZM26.295 12.7901C26.295 11.2155 27.4549 10 28.8412 10C30.2274 10 31.4157 11.2155 31.4157 12.7901C31.4157 14.3646 30.2274 15.5801 28.8412 15.5801C27.4549 15.5801 26.295 14.3646 26.295 12.7901Z" fill="#324DDC"/>
<path d="M37.9448 19.6409H42.8674V6.90608C42.8674 5.13812 43.6313 4.22652 44.9893 4.22652C46.0361 4.22652 46.8282 5 46.8282 6.04972C46.8282 7.26519 46.0078 7.87293 44.3952 7.87293H43.6596V11.7403H45.3288C46.8282 11.7403 47.6487 12.4586 47.6487 13.5635C47.6487 14.6685 46.8282 15.3591 45.3288 15.3591H43.6596V19.6685H45.0459C47.7618 19.6685 49.6573 19.3923 51.2417 17.7624C52.2036 16.768 52.7128 15.4972 52.7128 14.0331C52.7128 11.9337 51.6094 10.2486 49.5159 9.30939C50.9587 8.48066 51.6943 7.32044 51.6943 5.77348C51.6943 2.56906 48.8652 0 45.0742 0C40.8588 0 37.9448 2.79006 37.9448 7.01657V19.6409Z" fill="#324DDC"/>
<path d="M63.6854 19.6685H68.0705V13.9503C68.0705 12.3757 68.0705 10.9945 67.4481 9.66851C66.3165 7.23757 63.8834 5.71823 61.0543 5.71823C57.0087 5.71823 54.0098 8.64641 54.0098 12.7901C54.0098 16.8785 56.9521 19.8619 61.0543 19.8619C61.5353 19.8619 62.1577 19.8066 62.9781 19.6409V15.1657C62.2425 15.3867 61.6767 15.5249 61.2241 15.5249C59.5266 15.5249 58.5081 14.4475 58.5081 12.7901C58.5081 11.1326 59.5549 10.0829 60.9977 10.0829C62.7801 10.0829 63.6854 11.105 63.6854 13.1215V19.6685Z" fill="#324DDC"/>
<path d="M70.4908 19.6685H74.9608V0.359115H70.4908V19.6685Z" fill="#324DDC"/>
<path d="M77.5636 19.6685H81.9487V14.3646H83.533C84.9759 14.3646 85.6266 15.0552 85.6266 16.547V19.6685H90.0117V16.0221C90.0117 13.5912 89.1347 12.2928 86.8997 11.768C87.7767 11.4917 88.3991 10.9116 88.7103 10.1381L90.3512 5.99447H85.7115L84.8061 8.28729C84.2403 9.72376 83.7594 10.3867 82.7692 10.3867H81.9487V0.359115H77.5636V19.6685Z" fill="#324DDC"/>
<path d="M101.785 19.6685H106.17V13.9503C106.17 12.3757 106.17 10.9945 105.547 9.66851C104.416 7.23757 101.983 5.71823 99.1536 5.71823C95.1079 5.71823 92.109 8.64641 92.109 12.7901C92.109 16.8785 95.0513 19.8619 99.1536 19.8619C99.6345 19.8619 100.257 19.8066 101.077 19.6409V15.1657C100.342 15.3867 99.776 15.5249 99.3233 15.5249C97.6258 15.5249 96.6074 14.4475 96.6074 12.7901C96.6074 11.1326 97.6541 10.0829 99.097 10.0829C100.879 10.0829 101.785 11.105 101.785 13.1215V19.6685Z" fill="#324DDC"/>
<path d="M116.879 19.6685H121.265V12.7348C121.265 10.9945 121.038 9.61326 120.105 8.34254C118.86 6.68508 116.964 5.71823 114.842 5.71823C111.136 5.71823 108.42 8.28729 108.42 12.7348V19.6685H112.805V12.0442C112.805 10.7735 113.654 9.8895 114.842 9.8895C116.031 9.8895 116.879 10.7735 116.879 12.0442V19.6685Z" fill="#324DDC"/>
<path d="M123.306 15.8011V19.6685H127.946C129.7 19.6685 131.114 19.6685 132.274 18.9227C133.378 18.2044 134 17.0994 134 15.8011C134 13.8122 132.755 12.5691 130.181 11.5193L128.229 10.7182C128.031 10.6354 127.861 10.4144 127.861 10.1934C127.861 9.8895 128.144 9.66851 128.54 9.66851H133.264V5.99447H128.483C125.315 5.99447 123.532 7.48619 123.532 9.77901C123.532 11.6298 124.664 12.9558 126.955 13.895L128.992 14.7238C129.219 14.8343 129.389 15.0276 129.389 15.2762C129.389 15.6354 129.106 15.8011 128.596 15.8011H123.306Z" fill="#324DDC"/>
</svg>
