<svg width="163" height="163" viewBox="0 0 163 163" fill="none" xmlns="http://www.w3.org/2000/svg">
<path d="M81.5671 154.51C77.2883 154.51 73.0096 153.084 69.6816 150.232L58.9507 140.995C57.864 140.044 55.1474 139.093 53.7212 139.093H41.9715C31.9199 139.093 23.7699 130.944 23.7699 120.892V109.278C23.7699 107.851 22.8191 105.203 21.8682 104.116L12.6995 93.3174C7.13029 86.7295 7.13029 76.3384 12.6995 69.7505L21.8682 58.952C22.8191 57.8653 23.7699 55.2165 23.7699 53.7903V42.1759C23.7699 32.1243 31.9199 23.9747 41.9715 23.9747H53.7212C55.1474 23.9747 57.864 22.9558 58.9507 22.0729L69.6816 12.8363C76.3375 7.13131 86.7287 7.13131 93.3845 12.8363L104.115 22.0729C105.202 23.0237 107.919 23.9747 109.345 23.9747H120.891C130.942 23.9747 139.092 32.1243 139.092 42.1759V53.7223C139.092 55.1485 140.111 57.8653 141.062 58.952L150.231 69.6825C155.936 76.3384 155.936 86.7295 150.231 93.3854L141.062 104.116C140.111 105.203 139.16 107.919 139.16 109.346V120.892C139.16 130.944 131.01 139.093 120.959 139.093H109.413C107.986 139.093 105.27 140.112 104.183 140.995L93.4525 150.232C90.0566 153.084 85.7779 154.51 81.5671 154.51ZM41.9715 34.0943C37.5569 34.0943 33.9574 37.6934 33.9574 42.108V53.7223C33.9574 57.5935 32.1236 62.5513 29.6786 65.4717L20.5098 76.2702C18.1327 79.0548 18.1327 83.8771 20.5098 86.6617L29.6786 97.4602C32.1915 100.449 34.0254 105.406 34.0254 109.21V120.824C34.0254 125.239 37.6249 128.838 42.0395 128.838H53.7892C57.7283 128.838 62.6862 130.672 65.6746 133.252L76.4053 142.489C79.1899 144.866 84.08 144.866 86.8645 142.489L97.5953 133.252C100.584 130.74 105.542 128.838 109.481 128.838H121.027C125.441 128.838 129.041 125.239 129.041 120.824V109.278C129.041 105.338 130.874 100.381 133.455 97.3922L142.624 86.6617C145.001 83.8771 145.001 78.9868 142.624 76.2023L133.455 65.4717C130.942 62.4834 129.041 57.5255 129.041 53.5863V42.04C129.041 37.6254 125.441 34.0263 121.027 34.0263H109.481C105.609 34.0263 100.584 32.1924 97.5953 29.6115L86.8645 20.375C84.08 17.9979 79.1899 17.9979 76.4053 20.375L65.6746 29.6115C62.6862 32.1244 57.7283 34.0263 53.7892 34.0263H41.9715V34.0943Z" fill="white"/>
<path d="M41.9715 34.0943C37.5569 34.0943 33.9574 37.6934 33.9574 42.108V53.7223C33.9574 57.5935 32.1236 62.5513 29.6786 65.4717L20.5098 76.2702C18.1327 79.0548 18.1327 83.8771 20.5098 86.6617L29.6786 97.4602C32.1915 100.449 34.0254 105.406 34.0254 109.21V120.824C34.0254 125.239 37.6249 128.838 42.0395 128.838H53.7892C57.7283 128.838 62.6862 130.672 65.6746 133.252L76.4053 142.489C79.1899 144.866 84.08 144.866 86.8645 142.489L97.5953 133.252C100.584 130.74 105.542 128.838 109.481 128.838H121.027C125.441 128.838 129.041 125.239 129.041 120.824V109.278C129.041 105.338 130.874 100.381 133.455 97.3922L142.624 86.6617C145.001 83.8771 145.001 78.9868 142.624 76.2023L133.455 65.4717C130.942 62.4834 129.041 57.5255 129.041 53.5863V42.04C129.041 37.6254 125.441 34.0263 121.027 34.0263H109.481C105.609 34.0263 100.584 32.1924 97.5953 29.6115L86.8645 20.375C84.08 17.9979 79.1899 17.9979 76.4053 20.375L65.6746 29.6115C62.6862 32.1244 57.7283 34.0263 53.7892 34.0263H41.9715V34.0943Z" fill="white"/>
<path d="M52.6353 81.4999L71.8557 100.72L110.364 62.2795" stroke="#324DDC" stroke-width="10.1875" stroke-linecap="round" stroke-linejoin="round"/>
</svg>
