<svg width="38" height="38" viewBox="0 0 38 38" fill="none" xmlns="http://www.w3.org/2000/svg">
<path d="M8.66083 17.0209C7.53667 17.0209 6.39667 16.6092 5.52583 15.77C2.6125 12.9992 1.44083 9.97502 2.12167 7.01419C2.92917 3.53085 5.985 1.97919 8.66083 1.97919C11.3367 1.97919 14.4083 3.54669 15.2 7.01419C15.8808 9.97502 14.6933 12.9992 11.7958 15.77C10.925 16.6092 9.80083 17.0209 8.66083 17.0209ZM4.43333 7.55252C3.83167 10.1967 5.58917 12.54 7.1725 14.0442C8.01167 14.8517 9.32583 14.8359 10.165 14.0442C11.7483 12.54 13.5058 10.1967 12.8883 7.53669C12.35 5.19335 10.2758 4.35419 8.67667 4.35419C7.06167 4.35419 4.9875 5.19335 4.43333 7.55252Z" fill="#324DDC"/>
<path d="M8.72417 9.81669C7.85333 9.81669 7.14083 9.10419 7.14083 8.23336C7.14083 7.36252 7.8375 6.65002 8.72417 6.65002H8.74C9.61083 6.65002 10.3233 7.36252 10.3233 8.23336C10.3233 9.10419 9.61084 9.81669 8.72417 9.81669Z" fill="#324DDC"/>
<path d="M29.2758 36.0209C28.1517 36.0209 27.0117 35.6092 26.125 34.77C23.1958 31.9992 22.0083 28.975 22.705 25.9984C23.5125 22.5309 26.5842 20.9634 29.2758 20.9634C31.9675 20.9634 35.0392 22.5309 35.8467 25.9984C36.5275 28.9592 35.34 31.9992 32.4108 34.7542C31.54 35.6092 30.4158 36.0209 29.2758 36.0209ZM29.2758 23.3542C27.6608 23.3542 25.5708 24.1934 25.0167 26.5525C24.3992 29.1967 26.1725 31.5559 27.7558 33.06C28.595 33.8675 29.925 33.8675 30.78 33.06C32.3633 31.5559 34.1367 29.2125 33.5192 26.5684C32.9967 24.1934 30.9067 23.3542 29.2758 23.3542Z" fill="#324DDC"/>
<path d="M29.3392 28.8167C28.4683 28.8167 27.7558 28.1042 27.7558 27.2334C27.7558 26.3625 28.4525 25.65 29.3392 25.65H29.355C30.2258 25.65 30.9383 26.3625 30.9383 27.2334C30.9383 28.1042 30.21 28.8167 29.3392 28.8167Z" fill="#324DDC"/>
<path d="M19 31.2709H14.7567C12.92 31.2709 11.3208 30.1625 10.6875 28.4525C10.0383 26.7425 10.5133 24.8584 11.8908 23.6392L24.5417 12.5717C25.3017 11.9067 25.3175 11.0042 25.0958 10.3867C24.8583 9.76919 24.2567 9.10419 23.2433 9.10419H19C18.3508 9.10419 17.8125 8.56585 17.8125 7.91669C17.8125 7.26752 18.3508 6.72919 19 6.72919H23.2433C25.08 6.72919 26.6792 7.83752 27.3125 9.54752C27.9617 11.2575 27.4867 13.1417 26.1092 14.3609L13.4583 25.4284C12.6983 26.0934 12.6825 26.9959 12.9042 27.6134C13.1417 28.2309 13.7433 28.8959 14.7567 28.8959H19C19.6492 28.8959 20.1875 29.4342 20.1875 30.0834C20.1875 30.7325 19.6492 31.2709 19 31.2709Z" fill="#324DDC"/>
<path d="M19 31.2709H14.7567C12.92 31.2709 11.3208 30.1625 10.6875 28.4525C10.0383 26.7425 10.5133 24.8584 11.8908 23.6392L24.5417 12.5717C25.3017 11.9067 25.3175 11.0042 25.0958 10.3867C24.8583 9.76919 24.2567 9.10419 23.2433 9.10419H19C18.3508 9.10419 17.8125 8.56585 17.8125 7.91669C17.8125 7.26752 18.3508 6.72919 19 6.72919H23.2433C25.08 6.72919 26.6792 7.83752 27.3125 9.54752C27.9617 11.2575 27.4867 13.1417 26.1092 14.3609L13.4583 25.4284C12.6983 26.0934 12.6825 26.9959 12.9042 27.6134C13.1417 28.2309 13.7433 28.8959 14.7567 28.8959H19C19.6492 28.8959 20.1875 29.4342 20.1875 30.0834C20.1875 30.7325 19.6492 31.2709 19 31.2709Z" fill="#324DDC"/>
</svg>
