<svg width="441" height="441" viewBox="0 0 441 441" fill="none" xmlns="http://www.w3.org/2000/svg">
<path d="M154.668 73.0732H112.032V208.204H154.668V73.0732Z" fill="#F5F5F5"/>
<path d="M154.668 73.0732H133.35V207.834H154.668V73.0732Z" fill="#EBEBEB"/>
<path d="M131.956 59.7998H116.9V73.0651H131.956V59.7998Z" fill="#F5F5F5"/>
<path d="M131.956 59.7998H128.366V73.0651H131.956V59.7998Z" fill="#EBEBEB"/>
<path d="M108.477 73.073V72.2969H155.92V73.073" fill="#E0E0E0"/>
<path d="M124.053 78.8594H120.446V86.471H124.053V78.8594Z" fill="#FAFAFA"/>
<path d="M133.35 89.4526C133.35 89.532 128.578 89.6026 122.686 89.6026C116.795 89.6026 112.032 89.532 112.032 89.4526C112.032 89.3733 116.803 89.3115 122.686 89.3115C128.569 89.3115 133.35 89.3733 133.35 89.4526Z" fill="#E0E0E0"/>
<path d="M145.557 78.8594H141.949V86.471H145.557V78.8594Z" fill="#E0E0E0"/>
<path d="M154.853 89.4526C154.853 89.532 150.081 89.6026 144.198 89.6026C138.315 89.6026 133.535 89.532 133.535 89.4526C133.535 89.3733 138.307 89.3115 144.198 89.3115C150.09 89.3115 154.853 89.3733 154.853 89.4526Z" fill="#E0E0E0"/>
<path d="M145.557 93.9678H141.949V101.579H145.557V93.9678Z" fill="#E0E0E0"/>
<path d="M154.853 104.561C154.853 104.64 150.081 104.711 144.198 104.711C138.315 104.711 133.535 104.64 133.535 104.561C133.535 104.482 138.307 104.42 144.198 104.42C150.09 104.42 154.853 104.482 154.853 104.561Z" fill="#E0E0E0"/>
<path d="M145.557 109.526H141.949V117.138H145.557V109.526Z" fill="#E0E0E0"/>
<path d="M154.853 120.128C154.853 120.208 150.081 120.27 144.198 120.27C138.315 120.27 133.535 120.208 133.535 120.128C133.535 120.049 138.307 119.987 144.198 119.987C150.09 119.987 154.853 120.049 154.853 120.128Z" fill="#E0E0E0"/>
<path d="M145.557 125.094H141.949V132.705H145.557V125.094Z" fill="#E0E0E0"/>
<path d="M154.853 135.696C154.853 135.775 150.081 135.837 144.198 135.837C138.315 135.837 133.535 135.775 133.535 135.696C133.535 135.616 138.307 135.546 144.198 135.546C150.09 135.546 154.853 135.616 154.853 135.696Z" fill="#E0E0E0"/>
<path d="M145.557 140.22H141.949V147.831H145.557V140.22Z" fill="#E0E0E0"/>
<path d="M154.853 150.822C154.853 150.901 150.081 150.972 144.198 150.972C138.315 150.972 133.535 150.901 133.535 150.822C133.535 150.742 138.307 150.681 144.198 150.681C150.09 150.681 154.853 150.734 154.853 150.822Z" fill="#E0E0E0"/>
<path d="M145.557 155.399H141.949V163.011H145.557V155.399Z" fill="#E0E0E0"/>
<path d="M145.557 170.781H141.949V178.393H145.557V170.781Z" fill="#E0E0E0"/>
<path d="M154.853 165.992C154.853 166.071 150.081 166.142 144.198 166.142C138.315 166.142 133.535 166.071 133.535 165.992C133.535 165.912 138.307 165.851 144.198 165.851C150.09 165.851 154.853 165.912 154.853 165.992Z" fill="#E0E0E0"/>
<path d="M124.053 94.1973H120.446V101.809H124.053V94.1973Z" fill="#FAFAFA"/>
<path d="M133.35 104.791C133.35 104.87 128.578 104.94 122.686 104.94C116.795 104.94 112.014 104.87 112.014 104.791C112.014 104.711 116.786 104.649 122.669 104.649C128.552 104.649 133.35 104.711 133.35 104.791Z" fill="#E0E0E0"/>
<path d="M124.053 109.535H120.446V117.147H124.053V109.535Z" fill="#FAFAFA"/>
<path d="M133.35 120.137C133.35 120.217 128.578 120.278 122.686 120.278C116.795 120.278 112.014 120.217 112.014 120.137C112.014 120.058 116.786 119.987 122.669 119.987C128.552 119.987 133.35 120.058 133.35 120.137Z" fill="#E0E0E0"/>
<path d="M124.053 124.873H120.446V132.485H124.053V124.873Z" fill="#FAFAFA"/>
<path d="M133.35 135.475C133.35 135.555 128.578 135.616 122.686 135.616C116.795 135.616 112.014 135.555 112.014 135.475C112.014 135.396 116.786 135.325 122.669 135.325C128.552 135.325 133.35 135.396 133.35 135.475Z" fill="#E0E0E0"/>
<path d="M124.053 140.22H120.446V147.831H124.053V140.22Z" fill="#FAFAFA"/>
<path d="M133.35 150.822C133.35 150.901 128.578 150.972 122.686 150.972C116.795 150.972 112.014 150.892 112.014 150.822C112.014 150.751 116.786 150.681 122.669 150.681C128.552 150.681 133.35 150.734 133.35 150.822Z" fill="#E0E0E0"/>
<path d="M124.053 155.558H120.446V163.169H124.053V155.558Z" fill="#FAFAFA"/>
<path d="M133.35 166.151C133.35 166.23 128.578 166.301 122.686 166.301C116.795 166.301 112.032 166.23 112.032 166.151C112.032 166.072 116.803 166.01 122.686 166.01C128.569 166.01 133.35 166.072 133.35 166.151Z" fill="#E0E0E0"/>
<path d="M124.053 170.896H120.446V178.508H124.053V170.896Z" fill="#FAFAFA"/>
<path d="M310.817 101.721H268.181V236.852H310.817V101.721Z" fill="#F5F5F5"/>
<path d="M310.826 101.721H289.508V236.481H310.826V101.721Z" fill="#EBEBEB"/>
<path d="M288.114 88.4551H273.059V101.72H288.114V88.4551Z" fill="#F5F5F5"/>
<path d="M288.114 88.4551H284.524V101.72H288.114V88.4551Z" fill="#EBEBEB"/>
<path d="M264.635 101.721V100.944H312.069V101.721" fill="#E0E0E0"/>
<path d="M280.211 107.507H276.604V115.118H280.211V107.507Z" fill="#FAFAFA"/>
<path d="M289.508 118.108C289.508 118.187 284.736 118.249 278.844 118.249C272.953 118.249 268.181 118.187 268.181 118.108C268.181 118.029 272.961 117.958 278.844 117.958C284.727 117.958 289.508 118.029 289.508 118.108Z" fill="#E0E0E0"/>
<path d="M301.715 107.507H298.107V115.118H301.715V107.507Z" fill="#E0E0E0"/>
<path d="M311.011 118.108C311.011 118.187 306.239 118.249 300.348 118.249C294.456 118.249 289.693 118.187 289.693 118.108C289.693 118.029 294.465 117.958 300.348 117.958C306.231 117.958 311.011 118.029 311.011 118.108Z" fill="#E0E0E0"/>
<path d="M301.715 122.615H298.107V130.227H301.715V122.615Z" fill="#E0E0E0"/>
<path d="M311.011 133.182C311.011 133.262 306.239 133.323 300.348 133.323C294.456 133.323 289.693 133.262 289.693 133.182C289.693 133.103 294.465 133.032 300.348 133.032C306.231 133.032 311.011 133.182 311.011 133.182Z" fill="#E0E0E0"/>
<path d="M301.715 138.183H298.107V145.794H301.715V138.183Z" fill="#E0E0E0"/>
<path d="M311.011 148.785C311.011 148.864 306.239 148.926 300.348 148.926C294.456 148.926 289.693 148.864 289.693 148.785C289.693 148.705 294.465 148.635 300.348 148.635C306.231 148.635 311.011 148.705 311.011 148.785Z" fill="#E0E0E0"/>
<path d="M301.715 153.75H298.107V161.362H301.715V153.75Z" fill="#E0E0E0"/>
<path d="M311.011 164.343C311.011 164.431 306.239 164.493 300.348 164.493C294.456 164.493 289.693 164.431 289.693 164.343C289.693 164.255 294.465 164.202 300.348 164.202C306.231 164.202 311.011 164.264 311.011 164.343Z" fill="#E0E0E0"/>
<path d="M301.715 168.867H298.107V176.479H301.715V168.867Z" fill="#E0E0E0"/>
<path d="M311.011 179.469C311.011 179.549 306.239 179.61 300.348 179.61C294.456 179.61 289.693 179.549 289.693 179.469C289.693 179.39 294.465 179.319 300.348 179.319C306.231 179.319 311.011 179.39 311.011 179.469Z" fill="#E0E0E0"/>
<path d="M301.715 184.047H298.107V191.659H301.715V184.047Z" fill="#E0E0E0"/>
<path d="M301.715 199.429H298.107V207.04H301.715V199.429Z" fill="#E0E0E0"/>
<path d="M311.011 194.648C311.011 194.727 306.239 194.789 300.348 194.789C294.456 194.789 289.693 194.727 289.693 194.648C289.693 194.569 294.465 194.507 300.348 194.507C306.231 194.507 311.011 194.569 311.011 194.648Z" fill="#E0E0E0"/>
<path d="M280.211 122.845H276.604V130.456H280.211V122.845Z" fill="#FAFAFA"/>
<path d="M289.508 133.447C289.508 133.526 284.736 133.588 278.844 133.588C272.953 133.588 268.181 133.526 268.181 133.447C268.181 133.367 272.961 133.306 278.844 133.306C284.727 133.306 289.508 133.367 289.508 133.447Z" fill="#E0E0E0"/>
<path d="M280.211 138.191H276.604V145.803H280.211V138.191Z" fill="#FAFAFA"/>
<path d="M289.508 148.785C289.508 148.864 284.736 148.935 278.844 148.935C272.953 148.935 268.181 148.864 268.181 148.785C268.181 148.705 272.961 148.644 278.844 148.644C284.727 148.644 289.508 148.705 289.508 148.785Z" fill="#E0E0E0"/>
<path d="M280.211 153.529H276.604V161.141H280.211V153.529Z" fill="#FAFAFA"/>
<path d="M289.508 164.123C289.508 164.211 284.736 164.273 278.844 164.273C272.953 164.273 268.181 164.211 268.181 164.123C268.181 164.034 272.961 163.981 278.844 163.981C284.727 163.981 289.508 164.052 289.508 164.123Z" fill="#E0E0E0"/>
<path d="M280.211 168.867H276.604V176.479H280.211V168.867Z" fill="#FAFAFA"/>
<path d="M289.508 179.469C289.508 179.549 284.736 179.61 278.844 179.61C272.953 179.61 268.181 179.549 268.181 179.469C268.181 179.39 272.961 179.319 278.844 179.319C284.727 179.319 289.508 179.39 289.508 179.469Z" fill="#E0E0E0"/>
<path d="M280.211 184.214H276.604V191.826H280.211V184.214Z" fill="#FAFAFA"/>
<path d="M289.508 194.807C289.508 194.887 284.736 194.948 278.844 194.948C272.953 194.948 268.181 194.887 268.181 194.807C268.181 194.728 272.961 194.666 278.844 194.666C284.727 194.666 289.508 194.728 289.508 194.807Z" fill="#E0E0E0"/>
<path d="M280.211 199.553H276.604V207.164H280.211V199.553Z" fill="#FAFAFA"/>
<path d="M364.063 154.155H295.02V245.213H364.063V154.155Z" fill="#EBEBEB"/>
<path d="M364.054 154.155H331.685V245.213H364.054V154.155Z" fill="#E0E0E0"/>
<path d="M315.703 166.486H309.494V181.569H315.703V166.486Z" fill="#F5F5F5"/>
<path d="M315.703 225.51H309.494V240.592H315.703V225.51Z" fill="#F5F5F5"/>
<path d="M331.685 187.486C331.685 187.654 323.482 187.786 313.357 187.786C303.232 187.786 295.02 187.654 295.02 187.486C295.02 187.319 303.223 187.178 313.357 187.178C323.491 187.178 331.685 187.31 331.685 187.486Z" fill="#F5F5F5"/>
<path d="M315.703 196.219H309.494V211.301H315.703V196.219Z" fill="#F5F5F5"/>
<path d="M331.685 217.219C331.685 217.386 323.482 217.528 313.357 217.528C303.232 217.528 295.02 217.386 295.02 217.219C295.02 217.051 303.223 216.91 313.357 216.91C323.491 216.91 331.685 217.051 331.685 217.219Z" fill="#F5F5F5"/>
<path d="M344.774 166.486H338.564V181.569H344.774V166.486Z" fill="#F5F5F5"/>
<path d="M358.242 166.486H352.033V181.569H358.242V166.486Z" fill="#F5F5F5"/>
<path d="M344.774 195.098H338.564V210.18H344.774V195.098Z" fill="#F5F5F5"/>
<path d="M358.242 195.098H352.033V210.18H358.242V195.098Z" fill="#F5F5F5"/>
<path d="M344.774 223.719H338.564V238.801H344.774V223.719Z" fill="#F5F5F5"/>
<path d="M358.242 223.719H352.033V238.801H358.242V223.719Z" fill="#F5F5F5"/>
<path d="M369.249 150.98H289.825V154.262H369.249V150.98Z" fill="#E0E0E0"/>
<path d="M364.54 154.579C364.54 154.747 349.113 154.879 330.08 154.879C311.046 154.879 295.611 154.747 295.611 154.579C295.611 154.412 311.046 154.271 330.08 154.271C349.113 154.271 364.54 154.403 364.54 154.579Z" fill="#EBEBEB"/>
<path d="M138.853 247.03H76.1079L75.8345 147.867H138.58L138.853 247.03Z" fill="#EBEBEB"/>
<path d="M138.58 147.867H107.207V247.03H138.58V147.867Z" fill="#E0E0E0"/>
<path d="M105.152 128.349H82.9963V147.867H105.152V128.349Z" fill="#EBEBEB"/>
<path d="M105.152 128.349H99.8689V147.867H105.152V128.349Z" fill="#E0E0E0"/>
<path d="M140.415 146.729H70.6042V147.867H140.415V146.729Z" fill="#E0E0E0"/>
<path d="M93.5274 156.387H88.2178V167.588H93.5274V156.387Z" fill="white"/>
<path d="M107.207 171.99C107.207 172.105 100.151 172.202 91.5164 172.202C82.8816 172.202 75.8521 172.096 75.8521 171.99C75.8521 171.884 82.908 171.778 91.534 171.778C100.16 171.778 107.207 171.858 107.207 171.99Z" fill="#E0E0E0"/>
<path d="M125.174 156.387H119.864V167.588H125.174V156.387Z" fill="#F5F5F5"/>
<path d="M138.853 171.99C138.853 172.105 131.797 172.202 123.163 172.202C114.528 172.202 107.481 172.105 107.481 171.99C107.481 171.875 114.537 171.778 123.163 171.778C131.789 171.778 138.853 171.858 138.853 171.99Z" fill="#EBEBEB"/>
<path d="M125.174 178.622H119.864V189.823H125.174V178.622Z" fill="#F5F5F5"/>
<path d="M138.853 194.217C138.853 194.331 131.797 194.428 123.163 194.428C114.528 194.428 107.481 194.331 107.481 194.217C107.481 194.102 114.537 193.996 123.163 193.996C131.789 193.996 138.853 194.093 138.853 194.217Z" fill="#EBEBEB"/>
<path d="M125.174 201.528H119.864V212.73H125.174V201.528Z" fill="#F5F5F5"/>
<path d="M138.853 217.122C138.853 217.237 131.797 217.334 123.163 217.334C114.528 217.334 107.481 217.237 107.481 217.122C107.481 217.007 114.537 216.901 123.163 216.901C131.789 216.901 138.853 216.972 138.853 217.122Z" fill="#EBEBEB"/>
<path d="M125.174 224.425H119.864V235.626H125.174V224.425Z" fill="#F5F5F5"/>
<path d="M138.853 240.027C138.853 240.142 131.797 240.239 123.163 240.239C114.528 240.239 107.481 240.142 107.481 240.027C107.481 239.912 114.537 239.807 123.163 239.807C131.789 239.807 138.853 239.904 138.853 240.027Z" fill="#EBEBEB"/>
<path d="M93.5274 178.958H88.2178V190.159H93.5274V178.958Z" fill="white"/>
<path d="M107.207 194.552C107.207 194.675 100.151 194.763 91.5164 194.763C82.8816 194.763 75.8521 194.675 75.8521 194.552C75.8521 194.428 82.908 194.34 91.534 194.34C100.16 194.34 107.207 194.437 107.207 194.552Z" fill="#E0E0E0"/>
<path d="M93.5274 201.528H88.2178V212.73H93.5274V201.528Z" fill="white"/>
<path d="M107.207 217.122C107.207 217.245 100.151 217.342 91.5164 217.342C82.8816 217.342 75.8521 217.245 75.8521 217.122C75.8521 216.998 82.908 216.91 91.534 216.91C100.16 216.91 107.207 216.972 107.207 217.122Z" fill="#E0E0E0"/>
<path d="M93.5274 224.107H88.2178V235.309H93.5274V224.107Z" fill="white"/>
<path d="M107.207 239.701C107.207 239.816 100.151 239.913 91.5164 239.913C82.8816 239.913 75.8521 239.816 75.8521 239.701C75.8521 239.586 82.908 239.489 91.534 239.489C100.16 239.489 107.207 239.577 107.207 239.701Z" fill="#E0E0E0"/>
<path d="M387.339 127.828C387.674 125.411 384.27 123.418 381.712 123.224C380.49 123.273 379.266 123.169 378.069 122.915C375.573 122.033 374.541 118.805 372.134 117.782C370.308 117.006 368.209 117.694 366.436 118.584C364.663 119.475 362.908 120.595 360.941 120.719C359.177 120.833 357.351 120.19 355.852 121.036C354.732 121.663 354.141 122.95 353.109 123.682C352.033 124.342 350.79 124.678 349.528 124.652C348.269 124.617 347.015 124.821 345.832 125.252C345.244 125.479 344.746 125.891 344.412 126.425C344.078 126.959 343.926 127.588 343.98 128.216L387.339 127.828Z" fill="#F5F5F5"/>
<path d="M281.19 59.0937C281.711 55.3276 276.384 52.223 272.37 51.8966C270.465 51.7467 268.481 52.0377 266.682 51.4115C262.765 50.0444 261.196 44.9817 257.376 43.3677C254.519 42.1682 251.202 43.2354 248.459 44.6289C245.716 46.0225 242.956 47.7777 239.86 47.9805C237.214 48.1481 234.242 47.1515 231.922 48.4656C230.158 49.4447 229.276 51.4733 227.635 52.664C225.995 53.8547 223.984 54.0752 222.026 54.181C220.068 54.2868 218.03 54.3133 216.24 55.1247C214.45 55.9362 212.977 57.8413 213.347 59.7641L281.19 59.0937Z" fill="#EBEBEB"/>
<path d="M99.8425 111.309C100.257 108.301 96.0146 105.823 92.7865 105.567C91.2695 105.443 89.6907 105.681 88.2442 105.179C85.1219 104.085 83.8342 100.054 80.8354 98.7665C78.551 97.8051 75.9315 98.6607 73.7265 99.772C71.5215 100.883 69.3165 102.286 66.8645 102.418C64.7213 102.55 62.3928 101.756 60.5141 102.806C59.1117 103.582 58.3797 105.196 57.092 106.149C55.7517 106.98 54.1969 107.401 52.6202 107.357C51.0489 107.322 49.4848 107.58 48.0074 108.116C46.5873 108.768 45.4055 110.277 45.7053 111.811L99.8425 111.309Z" fill="#F5F5F5"/>
<path d="M68.6459 177.644C65.2193 177.727 61.8801 178.743 58.988 180.583C56.0959 182.422 53.7606 185.016 52.2335 188.085C50.7064 191.154 50.0455 194.581 50.3218 197.997C50.5982 201.414 51.8014 204.69 53.8019 207.474L53.9783 207.729L67.3229 225.872C67.5953 226.242 67.9525 226.54 68.3644 226.743C68.7762 226.946 69.2308 227.047 69.6898 227.037C70.1488 227.028 70.5988 226.908 71.0019 226.689C71.405 226.469 71.7495 226.156 72.0064 225.775L84.0633 207.844C86.3389 204.369 87.9088 200.726 87.9088 196.44C87.9036 193.933 87.3983 191.453 86.4225 189.145C85.4468 186.836 84.0202 184.745 82.2263 182.995C80.4324 181.245 78.3073 179.87 75.9754 178.951C73.6435 178.032 71.1517 177.588 68.6459 177.644ZM69.0958 210.181C66.2942 210.181 63.5556 209.351 61.2262 207.794C58.8967 206.238 57.0812 204.025 56.0091 201.437C54.937 198.849 54.6565 196.001 55.203 193.253C55.7496 190.505 57.0986 187.981 59.0796 186C61.0606 184.019 63.5846 182.67 66.3323 182.124C69.08 181.577 71.9281 181.858 74.5164 182.93C77.1047 184.002 79.317 185.817 80.8735 188.147C82.4299 190.476 83.2607 193.215 83.2607 196.016C83.2607 199.773 81.7683 203.376 79.1119 206.033C76.4554 208.689 72.8525 210.181 69.0958 210.181Z" fill="#324DDC"/>
<g opacity="0.3">
<path d="M68.6459 177.644C65.2193 177.727 61.8801 178.743 58.988 180.583C56.0959 182.422 53.7606 185.016 52.2335 188.085C50.7064 191.154 50.0455 194.581 50.3218 197.997C50.5982 201.414 51.8014 204.69 53.8019 207.474L53.9783 207.729L67.3229 225.872C67.5953 226.242 67.9525 226.54 68.3644 226.743C68.7762 226.946 69.2308 227.047 69.6898 227.037C70.1488 227.028 70.5988 226.908 71.0019 226.689C71.405 226.469 71.7495 226.156 72.0064 225.775L84.0633 207.844C86.3389 204.369 87.9088 200.726 87.9088 196.44C87.9036 193.933 87.3983 191.453 86.4225 189.145C85.4468 186.836 84.0202 184.745 82.2263 182.995C80.4324 181.245 78.3073 179.87 75.9754 178.951C73.6435 178.032 71.1517 177.588 68.6459 177.644ZM69.0958 210.181C66.2942 210.181 63.5556 209.351 61.2262 207.794C58.8967 206.238 57.0812 204.025 56.0091 201.437C54.937 198.849 54.6565 196.001 55.203 193.253C55.7496 190.505 57.0986 187.981 59.0796 186C61.0606 184.019 63.5846 182.67 66.3323 182.124C69.08 181.577 71.9281 181.858 74.5164 182.93C77.1047 184.002 79.317 185.817 80.8735 188.147C82.4299 190.476 83.2607 193.215 83.2607 196.016C83.2607 199.773 81.7683 203.376 79.1119 206.033C76.4554 208.689 72.8525 210.181 69.0958 210.181Z" fill="black"/>
</g>
<path d="M67.5347 177.644C62.7012 177.773 58.1009 179.749 54.6802 183.167C51.2596 186.584 49.2786 191.183 49.145 196.016C49.0284 200.122 50.2684 204.152 52.673 207.482L52.8582 207.738L66.194 225.88C66.4647 226.258 66.823 226.563 67.238 226.772C67.653 226.98 68.1124 227.084 68.5765 227.075C69.0407 227.067 69.4959 226.945 69.9028 226.722C70.3098 226.498 70.6563 226.179 70.9127 225.792L82.9697 207.861C85.2541 204.386 86.8152 200.743 86.8152 196.457C86.8124 193.948 86.3082 191.464 85.3324 189.152C84.3566 186.84 82.9288 184.747 81.1328 182.994C79.3368 181.242 77.2087 179.866 74.8736 178.947C72.5385 178.028 70.0434 177.585 67.5347 177.644ZM67.9757 207.632C65.8548 207.63 63.7821 207 62.0195 205.82C60.2569 204.64 58.8837 202.965 58.0732 201.005C57.2628 199.045 57.0517 196.889 57.4665 194.809C57.8814 192.729 58.9035 190.819 60.4038 189.32C61.9041 187.821 63.8151 186.8 65.8954 186.387C67.9756 185.974 70.1316 186.187 72.0909 186.999C74.0501 187.811 75.7246 189.186 76.9027 190.949C78.0808 192.713 78.7096 194.786 78.7096 196.907C78.7085 198.315 78.4299 199.71 77.8898 201.01C77.3498 202.311 76.5588 203.493 75.5621 204.488C74.5653 205.483 73.3823 206.272 72.0807 206.81C70.779 207.348 69.3841 207.624 67.9757 207.623V207.632Z" fill="#324DDC"/>
<path d="M364.142 159.784C361.528 159.841 358.978 160.612 356.77 162.012C354.561 163.412 352.776 165.389 351.609 167.729C350.442 170.07 349.936 172.684 350.145 175.291C350.355 177.898 351.273 180.398 352.8 182.521L352.941 182.716L363.11 196.536C363.318 196.811 363.588 197.033 363.897 197.183C364.207 197.334 364.548 197.409 364.892 197.402C365.237 197.395 365.574 197.306 365.878 197.144C366.181 196.981 366.442 196.749 366.638 196.466L375.829 182.804C377.658 180.268 378.681 177.241 378.766 174.116C378.762 172.21 378.378 170.325 377.638 168.569C376.898 166.813 375.816 165.222 374.455 163.888C373.094 162.554 371.482 161.504 369.711 160.8C367.941 160.095 366.048 159.75 364.142 159.784ZM364.486 184.585C362.353 184.585 360.267 183.953 358.492 182.768C356.718 181.584 355.334 179.9 354.516 177.929C353.698 175.959 353.482 173.79 353.896 171.696C354.309 169.603 355.334 167.68 356.84 166.168C358.347 164.657 360.267 163.626 362.359 163.206C364.451 162.785 366.62 162.994 368.593 163.806C370.567 164.617 372.255 165.996 373.446 167.766C374.636 169.537 375.275 171.621 375.282 173.754C375.287 175.175 375.011 176.583 374.47 177.897C373.93 179.21 373.136 180.405 372.133 181.411C371.13 182.417 369.938 183.215 368.626 183.76C367.314 184.305 365.907 184.585 364.486 184.585Z" fill="#324DDC"/>
<g opacity="0.3">
<path d="M364.142 159.784C361.528 159.841 358.978 160.612 356.77 162.012C354.561 163.412 352.776 165.389 351.609 167.729C350.442 170.07 349.936 172.684 350.145 175.291C350.355 177.898 351.273 180.398 352.8 182.521L352.941 182.716L363.11 196.536C363.318 196.811 363.588 197.033 363.897 197.183C364.207 197.334 364.548 197.409 364.892 197.402C365.237 197.395 365.574 197.306 365.878 197.144C366.181 196.981 366.442 196.749 366.638 196.466L375.829 182.804C377.658 180.268 378.681 177.241 378.766 174.116C378.762 172.21 378.378 170.325 377.638 168.569C376.898 166.813 375.816 165.222 374.455 163.888C373.094 162.554 371.482 161.504 369.711 160.8C367.941 160.095 366.048 159.75 364.142 159.784ZM364.486 184.585C362.353 184.585 360.267 183.953 358.492 182.768C356.718 181.584 355.334 179.9 354.516 177.929C353.698 175.959 353.482 173.79 353.896 171.696C354.309 169.603 355.334 167.68 356.84 166.168C358.347 164.657 360.267 163.626 362.359 163.206C364.451 162.785 366.62 162.994 368.593 163.806C370.567 164.617 372.255 165.996 373.446 167.766C374.636 169.537 375.275 171.621 375.282 173.754C375.287 175.175 375.011 176.583 374.47 177.897C373.93 179.21 373.136 180.405 372.133 181.411C371.13 182.417 369.938 183.215 368.626 183.76C367.314 184.305 365.907 184.585 364.486 184.585Z" fill="black"/>
</g>
<path d="M363.296 159.784C360.683 159.846 358.138 160.62 355.932 162.022C353.727 163.424 351.947 165.401 350.783 167.741C349.618 170.08 349.114 172.693 349.325 175.298C349.536 177.902 350.454 180.4 351.98 182.522L352.112 182.716L362.273 196.537C362.48 196.818 362.753 197.046 363.067 197.201C363.38 197.356 363.727 197.433 364.077 197.426C364.427 197.419 364.77 197.328 365.078 197.161C365.385 196.994 365.648 196.756 365.845 196.466L375.035 182.804C376.861 180.267 377.882 177.24 377.963 174.116C377.96 172.206 377.576 170.317 376.834 168.557C376.092 166.798 375.006 165.204 373.64 163.869C372.274 162.535 370.656 161.486 368.879 160.784C367.103 160.083 365.205 159.743 363.296 159.784ZM363.631 182.636C362.014 182.636 360.433 182.157 359.089 181.258C357.744 180.36 356.696 179.083 356.077 177.589C355.458 176.095 355.296 174.451 355.612 172.865C355.927 171.279 356.706 169.822 357.85 168.679C358.993 167.535 360.45 166.757 362.036 166.441C363.622 166.126 365.266 166.287 366.76 166.906C368.254 167.525 369.531 168.573 370.429 169.918C371.328 171.262 371.807 172.843 371.807 174.46C371.808 175.534 371.598 176.598 371.187 177.59C370.777 178.583 370.174 179.485 369.415 180.244C368.655 181.004 367.754 181.606 366.761 182.016C365.769 182.427 364.705 182.637 363.631 182.636Z" fill="#324DDC"/>
<path d="M78.9478 245.363L15.9553 401.795L134.064 382.373L220.685 401.795L309.397 382.373L428.035 405.005L364.522 245.363L293.653 227.512L221.999 241.165L148.767 227.512L78.9478 245.363Z" fill="white"/>
<path d="M78.9478 245.364L80.1033 245.055L83.5519 244.173L97.0641 240.689L148.74 227.459H148.785L221.991 241.068H221.929L293.583 227.397H293.706L364.566 245.196H364.672V245.293L428.176 404.935L428.335 405.323L427.92 405.244L366.894 393.602L309.282 382.612H309.379L220.659 402.016H220.606L133.993 382.612H134.064L15.9466 402.016L15.6555 402.06L15.7702 401.787C35.2536 353.488 51.0502 314.38 61.9341 287.347L74.5114 256.239L77.7836 248.16C78.5245 246.343 78.9126 245.417 78.9126 245.417C78.9126 245.417 78.5509 246.36 77.8189 248.195L74.5731 256.309L62.1105 287.418L16.1142 401.857L15.9289 401.628L134.064 382.171H134.143L220.756 401.575H220.668L309.379 382.171H309.423L367.035 393.161L428.061 404.803L427.805 405.112L364.301 245.47L364.442 245.593L293.583 227.724H293.706L222.026 241.315H221.964L148.758 227.627L97.1347 240.786L83.596 244.217L80.1297 245.099L78.9478 245.364Z" fill="#263238"/>
<path d="M82.6259 249.562L26.9805 393.919L133.544 376.596L222 397.068L309.397 376.076L418.059 397.068L360.844 249.562L294.703 233.289L222 246.942L147.717 233.289L82.6259 249.562Z" fill="white"/>
<path d="M33.1633 377.884L117.862 358.259L114.74 340.02L121.778 335.583L110.823 292.974L76.9546 264.265L33.1633 377.884Z" fill="#455A64"/>
<path d="M26.9805 393.919L31.1082 383.211L173.128 350.216L180.837 371.446L178.34 375.732L151.669 380.795L133.544 376.596L26.9805 393.919Z" fill="#EBEBEB"/>
<path d="M180.836 348.161L186.472 369.161L202.834 376.27L226.101 365.933L274.919 351.715L259.687 328.766L180.836 348.161Z" fill="#EBEBEB"/>
<path d="M124.115 355.941L150.504 350.216L145.239 333.07L126.011 337.71L120.896 341.326L124.115 355.941Z" fill="#E0E0E0"/>
<path d="M118.726 299.113L128.305 330.557L143.281 327.258L140.582 315.183L173.525 307.801L118.726 299.113Z" fill="#455A64"/>
<path d="M79.4507 257.809L120.896 291.078L175.915 301.512L234.603 286.923L207.817 244.332L147.717 233.289L82.6259 249.562L79.4507 257.809Z" fill="#EBEBEB"/>
<path d="M215.834 245.805L301.873 377.884L309.397 376.076L226.118 246.166L221.999 246.942L215.834 245.805Z" fill="#EBEBEB"/>
<path d="M146.121 318.508L157.022 350.216L253.813 325.485L235.9 294.994L146.121 318.508Z" fill="#E0E0E0"/>
<path d="M199.967 391.97L200.911 390.568L207.27 381.122L222.52 376.271L233.016 368.368L278.5 355.94L292.63 380.098L221.999 397.068" fill="#E0E0E0"/>
<path d="M280.547 235.944L303.338 261.301L360.844 249.562L294.703 233.289L280.547 235.944Z" fill="#E0E0E0"/>
<path d="M372.945 280.758L330.715 292.498L309.397 264.265L362.281 253.284L372.945 280.758Z" fill="#E0E0E0"/>
<path d="M230.634 245.31L274.92 308.92L326.023 294.253L274.92 237.002L230.634 245.31Z" fill="#EBEBEB"/>
<path d="M354.432 384.772L405.526 364.76L418.059 397.067L354.432 384.772Z" fill="#E0E0E0"/>
<path d="M300.991 305.119L328.757 297.878L358.083 333.07L329.542 342.542L300.991 305.119Z" fill="#455A64"/>
<path d="M335.01 294.994L365.906 330.415L389.174 322.6L373.871 283.157L335.01 294.994Z" fill="#E0E0E0"/>
<path d="M358.083 376.509L335.01 344.501L390.779 326.729L402.104 355.94L394.836 363.252L358.083 376.509Z" fill="#455A64"/>
<path d="M277.627 313.595L320.016 377.884L346.123 383.167L351.045 380.918L297.331 307.659L277.627 313.595Z" fill="#E0E0E0"/>
<path d="M103.909 361.496L93.351 311.84L56.113 318.349L33.1633 377.884L103.909 361.496Z" fill="#E0E0E0"/>
<path d="M138.148 235.68V258.418L146.121 259.423L168.383 285.354L187.522 283.158L196.633 296.361L175.915 301.512L120.896 291.078L79.4507 257.809L82.6259 249.562L138.148 235.68Z" fill="#455A64"/>
<path d="M254.536 241.024L285.803 286.65L312.74 279.373L274.919 237.002L254.536 241.024Z" fill="#E0E0E0"/>
<path d="M346.326 288.159L335.01 270.475L365.598 261.831L372.945 280.759L346.326 288.159Z" fill="#EBEBEB"/>
<path d="M300.991 349.035L315.8 343.91L344.518 382.842L320.016 377.885L300.991 349.035Z" fill="#EBEBEB"/>
<path d="M164.414 383.74L178.182 382.065L182.768 375.353L199.967 380.759L195.469 390.929L164.414 383.74Z" fill="#455A64"/>
<path d="M82.6258 249.607L86.9123 248.504L99.5072 245.329L147.691 233.219H147.735L222.026 246.828H221.964L294.667 233.148H294.747L360.897 249.404H360.994V249.51C378.554 294.589 397.897 344.474 418.271 396.989L418.421 397.377L418.015 397.297L363.499 386.766L309.353 376.297H309.45L222.052 397.289H221.946L133.5 376.8H133.579L27.0069 394.087L26.7246 394.131L26.8216 393.858C44.0471 349.273 57.9915 313.181 67.6229 288.238C72.4475 275.784 76.1872 266.109 78.7273 259.547L81.6291 252.094C82.2818 250.409 82.6258 249.562 82.6258 249.562C82.6258 249.562 82.2994 250.444 81.6556 252.129L78.7979 259.608L67.7641 288.362L27.1392 393.981L26.9539 393.761L133.508 376.403H133.588L222.044 396.901H221.946L309.344 375.9H309.397L363.587 386.317L418.068 396.848L417.812 397.156C397.447 344.633 378.122 294.783 360.615 249.642L360.756 249.765L294.606 233.475H294.685L221.973 247.093H221.911L147.647 233.404L99.5778 245.382L86.9564 248.513L82.6258 249.607Z" fill="#263238"/>
<g opacity="0.2">
<path d="M220.685 401.795L221.999 241.165L148.767 227.512L134.064 382.373L220.685 401.795Z" fill="black"/>
</g>
<g opacity="0.2">
<path d="M293.653 227.512L309.397 382.373L428.035 405.005L364.522 245.363L293.653 227.512Z" fill="black"/>
</g>
<path d="M222.564 89.1614C171.408 90.3521 129.68 132.053 128.463 183.209C127.925 204.208 134.292 224.804 146.588 241.836L147.532 243.114L147.664 243.3L215.931 336.157C217.324 338.051 219.152 339.582 221.261 340.621C223.37 341.661 225.698 342.177 228.048 342.128C230.399 342.079 232.703 341.465 234.766 340.338C236.83 339.211 238.592 337.605 239.904 335.654L301.644 243.926C313.322 226.109 321.33 207.499 321.33 185.555C321.33 172.695 318.758 159.966 313.765 148.115C308.772 136.264 301.459 125.532 292.255 116.55C283.052 107.568 272.146 100.518 260.177 95.814C248.208 91.1104 235.42 88.8485 222.564 89.1614ZM224.857 255.674C210.519 255.676 196.503 251.426 184.58 243.461C172.658 235.497 163.365 224.176 157.877 210.93C152.389 197.684 150.952 183.108 153.748 169.046C156.545 154.983 163.448 142.065 173.586 131.926C183.724 121.787 196.64 114.882 210.703 112.085C224.765 109.287 239.341 110.722 252.587 116.208C265.834 121.695 277.156 130.986 285.122 142.907C293.088 154.829 297.34 168.845 297.34 183.183C297.34 202.407 289.703 220.844 276.111 234.439C262.518 248.033 244.081 255.672 224.857 255.674Z" fill="#324DDC"/>
<g opacity="0.3">
<path d="M222.564 89.1614C171.408 90.3521 129.68 132.053 128.463 183.209C127.925 204.208 134.292 224.804 146.588 241.836L147.532 243.114L147.664 243.3L215.931 336.157C217.324 338.051 219.152 339.582 221.261 340.621C223.37 341.661 225.698 342.177 228.048 342.128C230.399 342.079 232.703 341.465 234.766 340.338C236.83 339.211 238.592 337.605 239.904 335.654L301.644 243.926C313.322 226.109 321.33 207.499 321.33 185.555C321.33 172.695 318.758 159.966 313.765 148.115C308.772 136.264 301.459 125.532 292.255 116.55C283.052 107.568 272.146 100.518 260.177 95.814C248.208 91.1104 235.42 88.8485 222.564 89.1614ZM224.857 255.674C210.519 255.676 196.503 251.426 184.58 243.461C172.658 235.497 163.365 224.176 157.877 210.93C152.389 197.684 150.952 183.108 153.748 169.046C156.545 154.983 163.448 142.065 173.586 131.926C183.724 121.787 196.64 114.882 210.703 112.085C224.765 109.287 239.341 110.722 252.587 116.208C265.834 121.695 277.156 130.986 285.122 142.907C293.088 154.829 297.34 168.845 297.34 183.183C297.34 202.407 289.703 220.844 276.111 234.439C262.518 248.033 244.081 255.672 224.857 255.674Z" fill="black"/>
</g>
<path d="M216.848 89.1614C165.692 90.3521 123.965 132.053 122.748 183.209C122.209 204.208 128.577 224.804 140.873 241.836L141.817 243.114L141.949 243.3L210.216 336.157C211.609 338.051 213.437 339.582 215.545 340.621C217.654 341.661 219.982 342.177 222.333 342.128C224.683 342.079 226.987 341.465 229.051 340.338C231.114 339.211 232.876 337.605 234.189 335.654L295.929 243.926C307.606 226.109 315.615 207.499 315.615 185.555C315.615 172.695 313.043 159.966 308.05 148.115C303.057 136.264 295.743 125.532 286.54 116.55C277.337 107.568 266.43 100.518 254.462 95.814C242.493 91.1104 229.704 88.8485 216.848 89.1614ZM219.142 255.674C204.804 255.676 190.787 251.426 178.865 243.461C166.943 235.497 157.65 224.176 152.162 210.93C146.674 197.684 145.237 183.108 148.033 169.046C150.829 154.983 157.733 142.065 167.87 131.926C178.008 121.787 190.925 114.882 204.987 112.085C219.049 109.287 233.626 110.722 246.872 116.208C260.119 121.695 271.441 130.986 279.407 142.907C287.373 154.829 291.624 168.845 291.624 183.183C291.624 202.407 283.988 220.844 270.395 234.439C256.802 248.033 238.366 255.672 219.142 255.674Z" fill="#324DDC"/>
<g opacity="0.3">
<path d="M260.843 237.857C259.678 239.172 183.024 259.413 181.868 260.728C196.563 265.208 214.502 269.107 229.867 268.216C238.519 267.722 247.507 266.178 254.386 260.851C261.266 255.524 265.006 245.46 260.843 237.857Z" fill="black"/>
</g>
<path d="M187.637 91.5693C185.425 93.9209 183.814 96.7723 182.942 99.8806C182.07 102.989 181.962 106.262 182.627 109.421C183.297 112.473 184.638 115.877 182.962 118.514C181.286 121.152 177.388 121.601 175.827 124.274C173.974 127.405 176.444 131.33 176.135 134.981C175.936 136.684 175.137 138.26 173.881 139.427C172.625 140.594 170.995 141.275 169.282 141.349C173.702 144.025 178.775 145.429 183.941 145.407C184.999 143.572 186.055 141.737 187.107 139.903C185.89 141.852 186.666 144.56 188.333 146.139C190 147.717 192.329 148.379 194.596 148.785C200.033 149.658 205.6 149.262 210.859 147.626C216.118 145.99 220.927 143.16 224.91 139.356" fill="#263238"/>
<path d="M249.482 110.709C248.38 108.451 246.775 106.44 245.954 104.076C244.102 99.0044 245.822 92.751 242.62 88.4027C240.345 85.2981 236.27 84.1956 232.469 83.587C228.667 82.9784 224.636 82.5727 221.549 80.2883C219.283 78.6037 217.775 76.0636 215.517 74.3789C212.297 71.9711 207.984 71.6095 203.98 71.9182C199.976 72.2269 195.672 73.2059 192.276 75.5432C188.88 77.8805 186.287 81.6643 186.199 85.792C186.155 87.803 186.684 89.8316 186.331 91.8073C185.943 93.9858 184.567 95.838 183.8 97.9195C183.078 100.154 183.119 102.565 183.917 104.773C184.716 106.982 186.226 108.862 188.21 110.118L221.285 142.372C227.459 143.766 241.359 139.082 245.293 134.099C249.227 129.116 252.252 116.424 249.482 110.709Z" fill="#263238"/>
<path d="M188.245 105.416C188.245 97.0458 193.14 86.4619 201.475 86.8235L227.847 91.7538C229.073 91.8079 230.235 92.3199 231.102 93.1887C231.969 94.0574 232.479 95.2197 232.53 96.4461L233.677 159.209H233.853C233.853 159.209 229.091 177.237 211.592 172.96C208.117 172.078 206.3 168.497 205.418 164.713H205.25C205.206 164.254 205.18 163.831 205.144 163.399C204.622 160.569 204.4 157.693 204.483 154.817C204.103 149.763 203.98 147.69 203.98 147.761C203.98 147.831 193.211 146.667 190.133 132.899C188.607 126.125 188.245 114.721 188.245 105.416Z" fill="#FFBE9D"/>
<path d="M212.403 113.999C212.412 114.23 212.467 114.458 212.564 114.669C212.661 114.879 212.799 115.069 212.969 115.226C213.14 115.383 213.339 115.505 213.557 115.585C213.775 115.665 214.006 115.702 214.238 115.692C214.468 115.699 214.696 115.66 214.911 115.577C215.125 115.493 215.32 115.368 215.485 115.207C215.65 115.046 215.78 114.854 215.869 114.642C215.958 114.43 216.003 114.202 216.002 113.972C215.993 113.741 215.938 113.513 215.841 113.302C215.744 113.092 215.606 112.902 215.436 112.745C215.265 112.588 215.065 112.466 214.848 112.386C214.63 112.306 214.399 112.269 214.167 112.279C213.937 112.272 213.708 112.311 213.494 112.394C213.28 112.478 213.084 112.603 212.92 112.764C212.755 112.924 212.624 113.117 212.536 113.329C212.447 113.541 212.402 113.769 212.403 113.999Z" fill="#263238"/>
<path d="M194.19 115.392C194.199 115.624 194.254 115.852 194.351 116.062C194.448 116.273 194.586 116.462 194.756 116.62C194.926 116.777 195.126 116.899 195.344 116.979C195.561 117.059 195.793 117.095 196.024 117.086C196.258 117.093 196.491 117.053 196.708 116.967C196.925 116.88 197.123 116.751 197.288 116.586C197.453 116.42 197.583 116.223 197.669 116.006C197.755 115.788 197.796 115.555 197.788 115.322C197.768 114.855 197.563 114.416 197.219 114.1C196.875 113.785 196.42 113.618 195.954 113.637C195.721 113.629 195.488 113.668 195.271 113.753C195.054 113.838 194.856 113.967 194.691 114.132C194.525 114.296 194.395 114.493 194.309 114.71C194.223 114.927 194.182 115.159 194.19 115.392Z" fill="#263238"/>
<path d="M190.362 111.45C190.6 111.741 192.126 110.48 194.199 110.488C196.271 110.497 197.806 111.723 198.044 111.423C198.159 111.291 197.921 110.762 197.259 110.188C196.394 109.469 195.306 109.073 194.181 109.068C193.056 109.089 191.975 109.508 191.129 110.25C190.512 110.779 190.247 111.317 190.362 111.45Z" fill="#263238"/>
<path d="M209.748 110.973C210.031 111.238 211.512 109.835 213.708 109.624C215.905 109.412 217.669 110.435 217.88 110.126C217.986 109.985 217.686 109.482 216.919 108.997C215.905 108.385 214.719 108.121 213.541 108.248C212.369 108.366 211.27 108.872 210.419 109.685C209.792 110.312 209.607 110.858 209.748 110.973Z" fill="#263238"/>
<path d="M203.892 125.005C202.858 124.757 201.798 124.636 200.734 124.644C200.249 124.644 199.773 124.556 199.676 124.22C199.598 123.717 199.678 123.203 199.905 122.747C200.293 121.539 200.699 120.26 201.122 118.928C202.807 113.486 203.989 109.032 203.768 108.962C203.548 108.891 202.004 113.257 200.329 118.664C199.923 120.004 199.544 121.31 199.173 122.509C198.9 123.12 198.854 123.808 199.041 124.45C199.126 124.621 199.251 124.77 199.404 124.884C199.557 124.999 199.735 125.077 199.923 125.111C200.213 125.172 200.509 125.192 200.805 125.173C201.837 125.248 202.874 125.192 203.892 125.005Z" fill="#263238"/>
<path d="M203.989 147.797C210.53 147.481 216.855 145.359 222.264 141.667C222.264 141.667 218.348 151.501 204.342 151.069L203.989 147.797Z" fill="#EB996E"/>
<path d="M204.994 129.584C205.33 129.101 205.783 128.712 206.311 128.453C206.839 128.194 207.424 128.073 208.011 128.102C208.437 128.116 208.855 128.215 209.243 128.392C209.63 128.569 209.979 128.821 210.269 129.134C210.545 129.439 210.722 129.822 210.774 130.23C210.826 130.639 210.751 131.053 210.56 131.418C210.272 131.781 209.883 132.051 209.441 132.192C209 132.333 208.527 132.34 208.081 132.212C207.156 131.946 206.293 131.5 205.541 130.898C205.314 130.762 205.116 130.582 204.959 130.369C204.886 130.264 204.847 130.139 204.847 130.011C204.847 129.884 204.886 129.759 204.959 129.654" fill="#324DDC"/>
<path d="M209.625 125.984C209.307 125.984 209.431 128.066 207.746 129.654C206.062 131.241 203.821 131.153 203.821 131.418C203.821 131.55 204.342 131.788 205.285 131.753C206.506 131.691 207.667 131.204 208.566 130.377C209.422 129.576 209.937 128.477 210.004 127.307C210.031 126.461 209.766 125.958 209.625 125.984Z" fill="#263238"/>
<path d="M209.034 104.481C209.263 104.993 211.16 104.623 213.444 104.755C215.728 104.887 217.572 105.381 217.854 104.896C217.969 104.667 217.625 104.19 216.857 103.732C215.838 103.177 214.706 102.861 213.546 102.806C212.387 102.751 211.23 102.959 210.163 103.414C209.316 103.802 208.928 104.235 209.034 104.481Z" fill="#263238"/>
<path d="M191.447 105.567C191.853 105.981 193.334 105.435 195.151 105.294C196.968 105.152 198.529 105.382 198.856 104.897C198.997 104.667 198.723 104.244 198.027 103.873C197.074 103.422 196.015 103.242 194.966 103.353C193.916 103.429 192.908 103.795 192.055 104.412C191.438 104.905 191.262 105.364 191.447 105.567Z" fill="#263238"/>
<path d="M233.73 92.9535C232.186 91.1895 229.761 90.4927 227.468 89.9547C217.566 87.6492 207.425 86.5271 197.259 86.6119C196.307 88.8345 197.841 91.4629 199.905 92.6889C201.969 93.9148 204.483 94.1706 206.838 94.691C209.193 95.2114 211.68 96.1816 212.915 98.219C214.229 100.433 213.797 103.326 214.987 105.601C217.051 109.517 222.987 110.011 225.025 113.963C226.568 116.935 225.227 120.507 225.236 123.859C225.238 125.559 225.603 127.24 226.306 128.788C227.008 130.337 228.033 131.718 229.312 132.839C230.591 133.96 232.094 134.795 233.721 135.289C235.348 135.783 237.062 135.925 238.748 135.704C237.766 123.779 236.79 111.858 235.82 99.9389C235.626 97.5046 235.353 94.8321 233.73 92.9535Z" fill="#263238"/>
<path d="M261.733 119.493C259.626 118.082 257.085 116.961 256 114.668C254.431 111.334 256.653 106.836 254.404 103.917C252.358 101.271 247.524 102.073 245.584 99.3303C244.067 97.187 245.152 94.9203 244.411 92.9799C243.67 91.0395 240.539 89.6371 238.51 90.1663L225.642 115.841C225.245 123.903 224.319 128.295 226.648 132.652C227.926 135.042 229.479 137.327 230.176 139.938C230.872 142.548 230.652 145.653 228.703 147.532C238.458 146.932 246.801 140.608 254.483 134.549L262.607 128.136C263.507 127.54 264.244 126.727 264.75 125.773C265.782 123.479 263.833 120.904 261.733 119.493Z" fill="#263238"/>
<path d="M254.422 132.15C254.103 132.302 253.769 132.417 253.425 132.494C252.431 132.741 251.401 132.813 250.382 132.706C248.759 132.55 247.206 131.972 245.875 131.03C244.108 129.741 242.857 127.865 242.347 125.738C242.03 124.515 241.961 123.24 242.144 121.99C242.405 120.672 242.838 119.394 243.432 118.188C244.068 116.931 244.517 115.588 244.764 114.202C244.892 113.492 244.861 112.763 244.672 112.067C244.483 111.371 244.14 110.726 243.67 110.18C242.629 109.13 240.954 109.068 239.357 108.672C238.492 108.497 237.699 108.067 237.082 107.437C236.501 106.745 236.147 105.893 236.067 104.994C235.838 103.23 236.367 101.466 236.455 99.8162C236.536 98.9789 236.424 98.1343 236.129 97.3466C235.799 96.58 235.209 95.955 234.462 95.5826C232.927 94.78 231.128 94.8682 229.391 94.9652C227.628 95.1469 225.848 94.8831 224.213 94.1979C222.636 93.503 221.278 92.3897 220.288 90.9786C219.423 89.6031 218.781 88.1 218.383 86.5245C218.009 85.0722 217.486 83.6624 216.822 82.3174C216.136 81.0987 215.198 80.0403 214.07 79.2127C212.198 77.8418 209.939 77.1027 207.618 77.1027C205.298 77.1027 203.038 77.8418 201.167 79.2127C199.868 80.1234 198.742 81.2584 197.841 82.5643C197.09 83.6935 196.474 84.9073 196.007 86.1805C196.013 86.0904 196.031 86.0014 196.06 85.9159C196.113 85.7483 196.174 85.4837 196.298 85.1662C196.642 84.2076 197.098 83.2928 197.656 82.4408C198.542 81.0734 199.669 79.878 200.981 78.9128C202.717 77.6447 204.773 76.8898 206.917 76.7343C209.554 76.5781 212.166 77.3213 214.326 78.8423C215.518 79.7029 216.51 80.8099 217.237 82.088C217.923 83.4596 218.464 84.8992 218.851 86.3834C219.245 87.9014 219.869 89.3501 220.703 90.6787C221.642 92.0009 222.922 93.0434 224.407 93.6952C225.962 94.3282 227.651 94.5617 229.32 94.3743C231.084 94.2861 232.963 94.1626 234.674 95.0534C235.542 95.482 236.227 96.2081 236.605 97.0997C236.936 97.9648 237.062 98.8943 236.976 99.8162C236.87 101.58 236.358 103.274 236.57 104.905C236.637 105.691 236.945 106.436 237.452 107.04C238.001 107.587 238.696 107.963 239.454 108.125C240.221 108.328 241.024 108.425 241.818 108.636C242.637 108.816 243.392 109.212 244.005 109.783C244.527 110.388 244.907 111.102 245.118 111.872C245.328 112.643 245.364 113.451 245.222 114.237C244.963 115.671 244.493 117.059 243.829 118.356C243.235 119.53 242.802 120.779 242.541 122.069C242.358 123.262 242.412 124.479 242.7 125.65C243.186 127.689 244.372 129.493 246.052 130.748C247.332 131.678 248.829 132.267 250.4 132.459C251.748 132.618 253.114 132.513 254.422 132.15Z" fill="#455A64"/>
<path d="M264.97 113.707C265.165 113.921 265.312 114.174 265.403 114.448C265.67 115.249 265.642 116.118 265.323 116.9C265.101 117.47 264.74 117.977 264.274 118.373C263.703 118.837 263.011 119.127 262.28 119.211C261.395 119.318 260.497 119.18 259.685 118.812C258.873 118.443 258.178 117.858 257.676 117.12C257.09 116.271 256.713 115.295 256.574 114.272C256.456 113.173 256.537 112.061 256.812 110.991C257.279 108.794 258.391 106.581 258.073 104.111C258.039 103.505 257.881 102.912 257.609 102.369C257.338 101.827 256.958 101.345 256.494 100.953C255.396 100.284 254.081 100.066 252.825 100.345C251.432 100.647 249.995 100.701 248.583 100.504C247.832 100.31 247.16 99.8876 246.66 99.2953C246.181 98.6969 245.838 98.0018 245.655 97.2578C245.391 95.8274 245.308 94.3695 245.408 92.9184C245.428 91.5606 245.16 90.214 244.623 88.9671C243.599 86.5925 241.705 84.6992 239.331 83.6751C237.064 82.7049 234.621 82.9077 232.425 83.0841C230.348 83.3784 228.237 83.3427 226.171 82.9783C224.474 82.5995 222.871 81.8793 221.461 80.8615C220.399 80.1036 219.457 79.1909 218.665 78.1537C217.973 77.2865 217.439 76.3043 217.087 75.252C217.594 76.2214 218.184 77.1451 218.851 78.0126C220.727 80.3422 223.345 81.9579 226.268 82.5902C228.297 82.9049 230.361 82.9049 232.389 82.5902C234.586 82.3962 237.117 82.158 239.542 83.1635C242.055 84.2219 244.068 86.2002 245.17 88.6936C245.74 90.0096 246.025 91.4313 246.007 92.8655C245.908 94.2694 245.988 95.6801 246.246 97.0638C246.362 97.7228 246.659 98.3367 247.103 98.8378C247.546 99.3389 248.119 99.7078 248.759 99.9038C250.105 100.083 251.471 100.029 252.799 99.7451C254.194 99.444 255.651 99.7038 256.856 100.468C257.374 100.906 257.798 101.444 258.101 102.051C258.405 102.657 258.581 103.319 258.62 103.996C258.743 105.25 258.614 106.515 258.241 107.718C257.932 108.883 257.553 109.967 257.297 111.044C257.018 112.059 256.931 113.118 257.041 114.166C257.161 115.114 257.503 116.02 258.038 116.812C258.494 117.5 259.129 118.051 259.875 118.405C260.621 118.76 261.45 118.904 262.272 118.823C262.946 118.755 263.588 118.498 264.124 118.082C264.57 117.726 264.922 117.266 265.147 116.741C265.47 116.005 265.533 115.18 265.323 114.404C265.218 114.166 265.1 113.933 264.97 113.707Z" fill="#263238"/>
<path d="M164.052 133.738C163.888 134.597 164.021 135.487 164.431 136.26C164.659 136.706 164.983 137.095 165.379 137.4C165.776 137.705 166.235 137.918 166.724 138.024C167.373 138.122 168.036 138.036 168.639 137.778C169.242 137.519 169.761 137.097 170.138 136.56C170.559 135.929 170.752 135.173 170.685 134.417C170.595 133.583 170.353 132.773 169.97 132.027C169.229 130.465 167.933 128.834 167.792 126.673C167.716 125.579 167.869 124.482 168.241 123.451C168.613 122.419 169.196 121.477 169.953 120.684C170.746 119.845 171.692 119.166 172.74 118.682C173.814 118.207 174.947 117.878 176.109 117.703C177.229 117.532 178.33 117.257 179.399 116.883C180.398 116.524 181.238 115.824 181.771 114.907C182.225 113.98 182.412 112.944 182.309 111.917C182.221 110.909 181.996 109.918 181.639 108.971C180.978 107.101 180.131 105.302 179.981 103.441C179.84 101.728 180.211 100.012 181.048 98.5105C181.77 97.312 182.713 96.2615 183.826 95.4147C184.635 94.7708 185.395 94.0692 186.102 93.3155C186.684 92.6596 187.126 91.8911 187.398 91.0576C187.398 91.0576 187.398 91.1194 187.398 91.234C187.376 91.4056 187.334 91.5742 187.275 91.7368C187.06 92.3665 186.728 92.95 186.296 93.4567C185.608 94.2438 184.859 94.9752 184.056 95.644C182.993 96.4896 182.096 97.5242 181.41 98.6957C180.641 100.133 180.31 101.764 180.457 103.388C180.616 105.152 181.445 106.916 182.142 108.786C182.523 109.776 182.764 110.815 182.856 111.873C182.974 113.003 182.769 114.144 182.265 115.163C181.673 116.196 180.736 116.989 179.619 117.403C178.517 117.8 177.38 118.096 176.224 118.285C175.108 118.453 174.02 118.767 172.987 119.22C171.993 119.668 171.094 120.302 170.341 121.09C169.632 121.826 169.084 122.702 168.732 123.662C168.379 124.621 168.23 125.644 168.294 126.664C168.4 128.64 169.609 130.192 170.376 131.85C170.776 132.653 171.021 133.523 171.099 134.417C171.171 135.268 170.94 136.118 170.446 136.816C170.022 137.404 169.44 137.861 168.768 138.134C168.095 138.407 167.36 138.485 166.645 138.359C165.792 138.141 165.043 137.629 164.531 136.912C164.02 136.196 163.778 135.321 163.849 134.443C163.872 134.197 163.941 133.958 164.052 133.738Z" fill="#263238"/>
<path d="M167.271 187.522C167.271 187.522 168.753 175.659 174.468 169.732C180.184 163.805 204.103 156.379 204.103 156.379C204.103 156.379 205.091 164.837 210.824 166.874C216.901 169.044 223.763 168.233 228.209 163.064C230.897 159.752 232.786 155.865 233.73 151.704C233.73 151.704 262.298 154.35 266.955 162.165C271.612 169.979 277.636 200.346 277.636 200.346L250.929 206.018L254.563 258.285H183.632L185.017 209.228L165.701 211.989L167.271 187.522Z" fill="#455A64"/>
<path d="M245.663 207.693C245.579 207.308 245.547 206.913 245.566 206.52C245.566 205.761 245.566 204.659 245.566 203.309C245.566 200.593 245.61 196.853 245.699 192.725C245.787 188.598 245.893 184.849 246.007 182.141C246.06 180.783 246.113 179.689 246.166 178.931C246.16 178.535 246.21 178.14 246.316 177.758C246.394 178.144 246.423 178.538 246.404 178.931C246.404 179.689 246.404 180.792 246.404 182.141C246.404 184.858 246.36 188.598 246.272 192.725C246.184 196.853 246.078 200.602 245.963 203.309C245.91 204.659 245.849 205.752 245.804 206.511C245.815 206.91 245.767 207.308 245.663 207.693Z" fill="#263238"/>
<path d="M178.437 186.172C178.605 186.128 180.272 191.464 182.159 198.017C184.047 204.571 185.458 209.977 185.291 210.021C185.123 210.066 183.465 204.729 181.568 198.185C179.672 191.641 178.279 186.225 178.437 186.172Z" fill="#263238"/>
<path d="M264.009 160.241C264.009 160.347 262.739 160.585 260.79 161.326C255.677 163.283 251.422 166.985 248.777 171.778C247.771 173.604 247.357 174.847 247.251 174.812C247.272 174.509 247.341 174.212 247.454 173.93C247.701 173.127 248.014 172.345 248.389 171.593C249.63 169.097 251.352 166.871 253.456 165.043C255.56 163.214 258.004 161.819 260.649 160.938C261.445 160.668 262.262 160.464 263.092 160.329C263.389 160.244 263.7 160.214 264.009 160.241Z" fill="#263238"/>
<path d="M174.045 172.122C174.204 172.122 174.768 173.736 175.297 175.809C175.827 177.882 176.118 179.601 175.95 179.646C175.782 179.69 175.227 178.031 174.698 175.959C174.168 173.886 173.877 172.166 174.045 172.122Z" fill="#263238"/>
<path d="M272.926 201.308C272.926 201.308 264.926 241.933 264.009 245.408C263.092 248.883 261.619 258.241 251.925 260.181C238.845 262.827 187.487 260.966 187.487 260.966L197.189 248.706L242.126 236.103L248.3 206.547L272.926 201.308Z" fill="#FFBE9D"/>
<path d="M196.333 241.845C196.511 242.133 196.64 242.449 196.712 242.78C196.976 243.665 197.147 244.576 197.224 245.496C197.495 248.553 196.856 251.621 195.389 254.316C194.609 255.818 193.62 257.202 192.452 258.426C191.482 259.421 190.313 260.199 189.021 260.711C188.154 261.038 187.246 261.243 186.322 261.319C185.987 261.374 185.644 261.374 185.308 261.319C186.511 261.097 187.691 260.77 188.836 260.34C190.04 259.8 191.125 259.026 192.029 258.065C193.129 256.863 194.071 255.527 194.834 254.087C196.246 251.477 196.918 248.531 196.774 245.567C196.686 243.238 196.218 241.88 196.333 241.845Z" fill="#EB996E"/>
<path d="M153.327 193.767C153.327 193.767 160.568 218.137 163.567 228.668C166.76 239.851 173.736 265.253 188.607 260.746C199.923 257.306 196.598 242.647 196.598 242.647L185.017 209.184L176.012 210.692L167.271 188.122L153.327 193.767Z" fill="#FFBE9D"/>
<path d="M192.637 243.705C193.042 241.89 193.042 240.008 192.637 238.192C192.159 236.239 191.341 234.385 190.221 232.715C188.809 230.676 187.24 228.751 185.529 226.956C183.81 225.128 182.235 223.17 180.819 221.099C179.687 219.391 178.698 217.591 177.864 215.719C177.299 214.461 176.816 213.167 176.418 211.847C176.234 211.371 176.116 210.873 176.065 210.365C176.292 210.817 176.484 211.286 176.638 211.768C176.991 212.65 177.52 213.973 178.261 215.534C179.136 217.358 180.15 219.113 181.295 220.782C182.718 222.812 184.286 224.737 185.987 226.541C187.72 228.36 189.296 230.322 190.697 232.406C191.838 234.153 192.643 236.097 193.07 238.139C193.345 239.513 193.345 240.928 193.07 242.302C192.999 242.673 192.896 243.036 192.761 243.387C192.736 243.499 192.694 243.606 192.637 243.705Z" fill="#EB996E"/>
<path d="M167.271 188.121C167.271 188.121 167.324 178.419 166.468 175.65L159.589 160.285C159.589 160.285 157.825 159.201 156.943 162.261C156.061 165.322 158.777 168.479 158.777 168.479L158.989 172.501L156.237 170.226L150.884 160.188C150.884 160.188 147.188 152.877 146.235 154.014C145.283 155.152 145.592 157.542 147.179 160.673L150.795 167.835C150.795 167.835 151.342 169.105 149.446 167.262C147.55 165.419 143.431 156.493 142.575 155.373C141.72 154.253 140.555 150.963 138.712 151.73C136.869 152.497 139.232 156.396 139.232 156.396L145.133 169.626C145.133 169.626 141.711 164.616 141.093 163.769C140.476 162.923 139.047 160.056 137.927 158.592C136.807 157.128 135.581 156.563 134.769 156.916C134.373 157.059 134.047 157.347 133.857 157.723C133.666 158.098 133.627 158.532 133.746 158.936L140.053 169.873C140.053 169.873 143.201 174.786 143.201 175.165C143.201 175.544 140.449 173.542 140.449 173.542L137.803 170.173C137.803 170.173 134.946 165.128 133.446 165.401C131.947 165.674 132.212 166.795 132.212 166.795L137.504 175.985L145.212 185.899L153.45 194.084L158.213 192.549L167.271 188.121Z" fill="#FFBE9D"/>
<path d="M152.11 186.481C152.35 185.487 152.509 184.476 152.586 183.456C152.895 181.639 153.521 178.914 155.752 177.159C156.654 176.406 157.78 175.975 158.954 175.933H159.351V175.509C159.228 173.622 159.298 171.822 159.228 170.632C159.285 169.976 159.194 169.316 158.963 168.7C158.84 169.334 158.778 169.978 158.778 170.623C158.642 172.286 158.592 173.955 158.628 175.624L158.989 175.201C157.638 175.197 156.329 175.672 155.294 176.541C154.164 177.453 153.301 178.654 152.798 180.016C152.402 181.101 152.153 182.234 152.057 183.385C151.904 184.413 151.922 185.459 152.11 186.481Z" fill="#EB996E"/>
<path d="M278.668 273.094H164.705C162.337 273.094 160.418 275.013 160.418 277.38V308.453C160.418 310.821 162.337 312.74 164.705 312.74H278.668C281.035 312.74 282.954 310.821 282.954 308.453V277.38C282.954 275.013 281.035 273.094 278.668 273.094Z" fill="white"/>
<path d="M182.426 302.892C179.453 302.892 176.988 301.914 175.031 299.957C173.074 297.982 172.096 295.545 172.096 292.647C172.096 289.75 173.074 287.322 175.031 285.365C176.988 283.39 179.453 282.402 182.426 282.402C184.213 282.402 185.86 282.825 187.365 283.672C188.889 284.519 190.074 285.666 190.921 287.115L188.099 288.752C187.572 287.774 186.8 287.002 185.784 286.438C184.787 285.855 183.668 285.563 182.426 285.563C180.318 285.563 178.606 286.231 177.289 287.567C175.991 288.903 175.341 290.596 175.341 292.647C175.341 294.698 175.991 296.392 177.289 297.727C178.606 299.063 180.318 299.731 182.426 299.731C183.668 299.731 184.797 299.449 185.813 298.885C186.829 298.301 187.591 297.521 188.099 296.542L190.921 298.151C190.093 299.6 188.917 300.757 187.393 301.622C185.888 302.469 184.232 302.892 182.426 302.892Z" fill="#324DDC"/>
<path d="M195.792 296.768C196.017 297.84 196.535 298.668 197.344 299.252C198.153 299.816 199.141 300.098 200.307 300.098C201.926 300.098 203.139 299.515 203.948 298.348L206.46 299.816C205.068 301.867 203.007 302.892 200.279 302.892C197.984 302.892 196.13 302.196 194.719 300.804C193.308 299.393 192.602 297.615 192.602 295.47C192.602 293.362 193.298 291.603 194.691 290.192C196.083 288.762 197.871 288.047 200.053 288.047C202.123 288.047 203.817 288.771 205.134 290.22C206.47 291.669 207.138 293.428 207.138 295.498C207.138 295.818 207.1 296.241 207.025 296.768H195.792ZM195.763 294.284H204.061C203.854 293.136 203.374 292.271 202.622 291.688C201.888 291.104 201.022 290.813 200.025 290.813C198.896 290.813 197.955 291.123 197.203 291.744C196.45 292.365 195.97 293.212 195.763 294.284Z" fill="#324DDC"/>
<path d="M217.807 288.047C219.745 288.047 221.401 288.771 222.775 290.22C224.148 291.65 224.835 293.4 224.835 295.47C224.835 297.558 224.148 299.317 222.775 300.747C221.401 302.177 219.745 302.892 217.807 302.892C215.662 302.892 214.016 302.102 212.868 300.522V308.17H209.82V288.414H212.868V290.446C214.016 288.846 215.662 288.047 217.807 288.047ZM214.138 298.715C214.985 299.562 216.048 299.985 217.327 299.985C218.607 299.985 219.67 299.562 220.517 298.715C221.363 297.85 221.787 296.768 221.787 295.47C221.787 294.171 221.363 293.099 220.517 292.252C219.67 291.387 218.607 290.954 217.327 290.954C216.048 290.954 214.985 291.387 214.138 292.252C213.291 293.099 212.868 294.171 212.868 295.47C212.868 296.768 213.291 297.85 214.138 298.715Z" fill="#324DDC"/>
<path d="M234.146 302.892C231.982 302.892 230.213 302.196 228.839 300.804C227.485 299.393 226.807 297.596 226.807 295.413C226.807 293.023 227.165 291.18 227.88 289.881C228.595 288.564 230.044 287.369 232.226 286.297C232.584 286.127 233.111 285.883 233.807 285.563C234.522 285.243 235.011 285.017 235.274 284.886C235.538 284.735 235.867 284.528 236.262 284.265C236.657 283.982 236.949 283.691 237.137 283.39C237.325 283.07 237.476 282.694 237.589 282.261L240.073 283.7C239.997 284.114 239.875 284.5 239.706 284.857C239.536 285.196 239.292 285.516 238.972 285.817C238.652 286.118 238.37 286.363 238.125 286.551C237.899 286.739 237.514 286.965 236.968 287.228C236.422 287.492 236.018 287.68 235.754 287.793C235.51 287.906 235.039 288.103 234.343 288.385C233.101 288.875 232.189 289.383 231.605 289.909C231.041 290.417 230.646 291.057 230.42 291.829C231.549 290.549 233.082 289.909 235.02 289.909C236.676 289.909 238.116 290.502 239.339 291.688C240.581 292.873 241.201 294.406 241.201 296.288C241.201 298.207 240.543 299.788 239.226 301.03C237.928 302.272 236.234 302.892 234.146 302.892ZM234.117 300.042C235.303 300.042 236.272 299.694 237.024 298.998C237.777 298.283 238.153 297.379 238.153 296.288C238.153 295.178 237.777 294.265 237.024 293.55C236.291 292.835 235.331 292.478 234.146 292.478C233.092 292.478 232.142 292.817 231.295 293.494C230.448 294.152 230.025 295.037 230.025 296.147C230.025 297.276 230.42 298.207 231.21 298.941C232 299.675 232.97 300.042 234.117 300.042Z" fill="#324DDC"/>
<path d="M253.828 288.414H256.171V302.526H253.179V293.55L245.954 302.526H243.611V288.414H246.603V297.361L253.828 288.414Z" fill="#324DDC"/>
<path d="M270.631 288.414V302.526H267.639V297.784H265.945L262.361 302.526H258.776L262.587 297.502C261.608 297.182 260.818 296.617 260.216 295.808C259.633 294.999 259.341 294.096 259.341 293.099C259.341 291.8 259.802 290.7 260.724 289.797C261.665 288.875 262.869 288.414 264.337 288.414H270.631ZM264.506 295.159H267.639V291.18H264.506C263.885 291.18 263.368 291.358 262.954 291.716C262.54 292.073 262.333 292.563 262.333 293.183C262.333 293.786 262.54 294.265 262.954 294.623C263.368 294.98 263.885 295.159 264.506 295.159Z" fill="#324DDC"/>
<path d="M278.712 312.748C278.712 312.748 278.994 312.748 279.523 312.642C280.306 312.481 281.028 312.102 281.605 311.548C282.077 311.098 282.442 310.547 282.671 309.936C282.9 309.325 282.988 308.67 282.928 308.02C282.928 306.468 282.928 304.686 282.928 302.728C282.928 298.715 282.928 293.811 282.928 288.114C282.928 285.262 282.928 282.222 282.928 278.994C282.959 278.184 282.932 277.374 282.848 276.568C282.684 275.769 282.288 275.036 281.711 274.46C281.116 273.866 280.352 273.468 279.523 273.322C278.643 273.247 277.76 273.227 276.877 273.261L164.81 273.322C163.833 273.321 162.887 273.673 162.149 274.313C161.41 274.953 160.927 275.839 160.788 276.806C160.709 277.433 160.788 278.138 160.744 278.809V306.45C160.744 307.085 160.744 307.729 160.744 308.364C160.733 308.972 160.857 309.574 161.106 310.128C161.353 310.677 161.718 311.164 162.175 311.555C162.633 311.945 163.171 312.229 163.752 312.386C164.33 312.518 164.924 312.568 165.516 312.536H181.868H232.248L266.214 312.616H275.448H277.856H278.668H277.856H275.448L266.214 312.66L232.248 312.73L181.868 312.783H165.437C164.791 312.818 164.144 312.762 163.514 312.616C162.551 312.352 161.702 311.776 161.102 310.977C160.502 310.179 160.184 309.204 160.198 308.206V302.437C160.198 297.281 160.198 292.033 160.198 286.694V278.65C160.18 277.961 160.198 277.272 160.25 276.586C160.347 275.873 160.617 275.195 161.035 274.61C161.456 274.024 162.009 273.546 162.65 273.215C163.291 272.884 164.001 272.709 164.722 272.705L276.789 272.776C277.672 272.747 278.556 272.773 279.435 272.855C280.311 273.018 281.116 273.442 281.746 274.072C282.376 274.702 282.8 275.507 282.963 276.383C283.055 277.206 283.081 278.035 283.042 278.861C283.042 282.09 283.042 285.13 283.042 287.981C283.042 293.679 283.042 298.565 283.042 302.596C283.042 304.595 283.042 306.359 283.042 307.888C283.079 308.609 282.956 309.329 282.681 309.996C282.436 310.544 282.082 311.036 281.64 311.443C281.047 311.997 280.305 312.368 279.506 312.51C279.305 312.546 279.101 312.567 278.897 312.571L278.712 312.748Z" fill="#263238"/>
</svg>
