<svg width="100" height="100" viewBox="0 0 100 100" fill="none" xmlns="http://www.w3.org/2000/svg">
<path d="M8.69873 26.1547L50 2.3094L91.3013 26.1547V73.8453L50 97.6906L8.69873 73.8453V26.1547Z" stroke="#324DDC" stroke-width="4"/>
<path d="M66.6042 28.6459H60.4792C57.8333 28.6459 56.25 30.2292 56.25 32.875V39C56.25 41.6459 57.8333 43.2292 60.4792 43.2292H66.6042C69.25 43.2292 70.8333 41.6459 70.8333 39V32.875C70.8333 30.2292 69.25 28.6459 66.6042 28.6459ZM67.0625 35.5417C66.8125 35.7917 66.4792 35.9167 66.1458 35.9167C65.8125 35.9167 65.4792 35.7917 65.2292 35.5417L64.8542 35.1667V39.8334C64.8542 40.5625 64.2708 41.1459 63.5417 41.1459C62.8125 41.1459 62.2292 40.5625 62.2292 39.8334V35.1667L61.8542 35.5417C61.3542 36.0417 60.5208 36.0417 60.0208 35.5417C59.5208 35.0417 59.5208 34.2084 60.0208 33.7084L62.625 31.1042C62.7292 31 62.875 30.9167 63.0208 30.8542C63.0625 30.8334 63.1042 30.8334 63.1458 30.8125C63.25 30.7709 63.3542 30.75 63.4792 30.75C63.5208 30.75 63.5625 30.75 63.6042 30.75C63.75 30.75 63.875 30.7709 64.0208 30.8334C64.0417 30.8334 64.0417 30.8334 64.0625 30.8334C64.2083 30.8959 64.3333 30.9792 64.4375 31.0834C64.4583 31.1042 64.4583 31.1042 64.4792 31.1042L67.0833 33.7084C67.5833 34.2084 67.5833 35.0417 67.0625 35.5417Z" fill="#324DDC"/>
<path d="M29.1667 48.875V59.2916C29.1667 64.0625 33.0208 67.9166 37.7917 67.9166H62.1875C66.9583 67.9166 70.8333 64.0416 70.8333 59.2708V48.875C70.8333 47.4791 69.7083 46.3541 68.3125 46.3541H31.6875C30.2917 46.3541 29.1667 47.4791 29.1667 48.875ZM41.6667 60.9375H37.5C36.6458 60.9375 35.9375 60.2291 35.9375 59.375C35.9375 58.5208 36.6458 57.8125 37.5 57.8125H41.6667C42.5208 57.8125 43.2292 58.5208 43.2292 59.375C43.2292 60.2291 42.5208 60.9375 41.6667 60.9375ZM55.2083 60.9375H46.875C46.0208 60.9375 45.3125 60.2291 45.3125 59.375C45.3125 58.5208 46.0208 57.8125 46.875 57.8125H55.2083C56.0625 57.8125 56.7708 58.5208 56.7708 59.375C56.7708 60.2291 56.0625 60.9375 55.2083 60.9375Z" fill="#324DDC"/>
<path d="M53.125 34.6042V40.7084C53.125 42.1042 52 43.2292 50.6042 43.2292H31.6875C30.2708 43.2292 29.1667 42.0625 29.1667 40.6667C29.1875 38.3125 30.125 36.1667 31.6875 34.6042C33.25 33.0417 35.4167 32.0834 37.7917 32.0834H50.6042C52 32.0834 53.125 33.2084 53.125 34.6042Z" fill="#324DDC"/>
</svg>
