<svg width="100" height="100" viewBox="0 0 100 100" fill="none" xmlns="http://www.w3.org/2000/svg">
<path d="M8.69873 26.1547L50 2.3094L91.3013 26.1547V73.8453L50 97.6906L8.69873 73.8453V26.1547Z" stroke="#324DDC" stroke-width="4"/>
<path d="M58.7291 29.1666H41.2708C33.6875 29.1666 29.1666 33.6875 29.1666 41.2708V58.7083C29.1666 66.3125 33.6875 70.8333 41.2708 70.8333H58.7083C66.2916 70.8333 70.8125 66.3125 70.8125 58.7291V41.2708C70.8333 33.6875 66.3125 29.1666 58.7291 29.1666ZM45.7083 52.6458C44.2916 54.7708 42.3333 56.5 40.0416 57.6458C39.8333 57.75 39.5833 57.8125 39.3541 57.8125C38.7708 57.8125 38.2291 57.5 37.9583 56.9583C37.5625 56.1875 37.875 55.25 38.6666 54.8541C40.4791 53.9583 42.0208 52.5833 43.125 50.9166C43.5 50.3541 43.5 49.6458 43.125 49.0833C42 47.4166 40.4583 46.0416 38.6666 45.1458C37.875 44.7708 37.5625 43.8333 37.9583 43.0416C38.3333 42.2708 39.2708 41.9583 40.0416 42.3541C42.3333 43.5 44.2916 45.2291 45.7083 47.3541C46.7916 48.9583 46.7916 51.0416 45.7083 52.6458ZM60.4166 57.8125H52.0833C51.2291 57.8125 50.5208 57.1041 50.5208 56.25C50.5208 55.3958 51.2291 54.6875 52.0833 54.6875H60.4166C61.2708 54.6875 61.9791 55.3958 61.9791 56.25C61.9791 57.1041 61.2708 57.8125 60.4166 57.8125Z" fill="#324DDC"/>
</svg>
