<svg width="44" height="44" viewBox="0 0 44 44" fill="none" xmlns="http://www.w3.org/2000/svg">
<g clip-path="url(#clip0_63_5139)">
<path fill-rule="evenodd" clip-rule="evenodd" d="M43.2 22C43.2 33.9286 33.5286 43.6 21.6 43.6C9.6714 43.6 0 33.9286 0 22C0 10.0714 9.6714 0.400024 21.6 0.400024C33.5286 0.400024 43.2 10.0714 43.2 22ZM22.374 16.3462C20.2734 17.2192 16.074 19.0282 9.7776 21.7714C8.7552 22.1782 8.2188 22.576 8.1702 22.9648C8.0874 23.6236 8.9118 23.8828 10.0314 24.2338C10.1844 24.2824 10.3428 24.331 10.5048 24.385C11.6082 24.7432 13.0914 25.1626 13.8618 25.1788C14.562 25.1932 15.3432 24.9052 16.2054 24.3148C22.0878 20.3422 25.1244 18.3352 25.3152 18.292C25.4502 18.2614 25.6374 18.2218 25.7634 18.3352C25.8894 18.4468 25.8768 18.6592 25.8642 18.7168C25.7814 19.0642 22.5522 22.0684 20.8782 23.6236C20.3562 24.1078 19.9872 24.4516 19.9116 24.5308C19.7424 24.7054 19.5696 24.8728 19.404 25.033C18.378 26.0194 17.6112 26.761 19.4472 27.9706C20.3292 28.552 21.0348 29.0326 21.7386 29.5114C22.5072 30.0352 23.274 30.5572 24.2676 31.2088C24.5196 31.3744 24.7608 31.5454 24.9966 31.7128C25.8912 32.3518 26.6958 32.9242 27.6894 32.8342C28.2654 32.7802 28.863 32.2384 29.1654 30.6202C29.88 26.7934 31.2876 18.5062 31.6134 15.0898C31.6332 14.8062 31.6212 14.5212 31.5774 14.2402C31.5512 14.0133 31.4407 13.8045 31.2678 13.6552C31.0104 13.4446 30.6108 13.3996 30.4308 13.4032C29.619 13.4176 28.3734 13.8514 22.374 16.3462Z" fill="black"/>
</g>
<defs>
<clipPath id="clip0_63_5139">
<rect width="43.2" height="43.2" fill="white" transform="translate(0 0.400024)"/>
</clipPath>
</defs>
</svg>
