<svg width="24" height="24" viewBox="0 0 24 24" fill="none" xmlns="http://www.w3.org/2000/svg">
<path d="M23.2968 8.48445H22.5937V7.78132C22.5937 7.39268 22.2792 7.0782 21.8906 7.0782C21.502 7.0782 21.1875 7.39268 21.1875 7.78132V8.48445H20.4843C20.0957 8.48445 19.7812 8.79893 19.7812 9.18757C19.7812 9.57621 20.0957 9.8907 20.4843 9.8907H21.1875V10.5938C21.1875 10.9825 21.502 11.2969 21.8906 11.2969C22.2792 11.2969 22.5937 10.9825 22.5937 10.5938V9.8907H23.2968C23.6855 9.8907 24 9.57621 24 9.18757C24 8.79893 23.6855 8.48445 23.2968 8.48445Z" fill="url(#paint0_linear_40_120)"/>
<path d="M20.4375 5.67196C20.8258 5.67196 21.1406 5.35716 21.1406 4.96884C21.1406 4.58051 20.8258 4.26571 20.4375 4.26571C20.0491 4.26571 19.7343 4.58051 19.7343 4.96884C19.7343 5.35716 20.0491 5.67196 20.4375 5.67196Z" fill="url(#paint1_linear_40_120)"/>
<path d="M17.625 9.89069C18.0133 9.89069 18.3281 9.57589 18.3281 9.18756C18.3281 8.79924 18.0133 8.48444 17.625 8.48444C17.2367 8.48444 16.9219 8.79924 16.9219 9.18756C16.9219 9.57589 17.2367 9.89069 17.625 9.89069Z" fill="url(#paint2_linear_40_120)"/>
<path d="M11.5029 17.1279C11.7776 16.8533 12.2225 16.8533 12.4972 17.1279L12.7032 17.3339V11.2969H11.2969V17.3339L11.5029 17.1279Z" fill="url(#paint3_linear_40_120)"/>
<path d="M19.0312 11.2969H14.1094V19.0313C14.1094 19.3155 13.9384 19.5723 13.6754 19.6808C13.5882 19.7172 13.4969 19.7344 13.4063 19.7344C13.2236 19.7344 13.0437 19.663 12.9092 19.5284L12 18.6192L11.0909 19.5284C10.889 19.7302 10.5882 19.79 10.3246 19.6808C10.0616 19.5723 9.89061 19.3155 9.89061 19.0313V11.2969H9.49639L4.26569 14.3169V23.2969C4.26569 23.6855 4.58017 24 4.96881 24H19.0312C19.4199 24 19.7343 23.6855 19.7343 23.2969V12C19.7343 11.6114 19.4199 11.2969 19.0312 11.2969Z" fill="url(#paint4_linear_40_120)"/>
<path d="M17.3791 4.30973L15.9729 1.87412C15.8796 1.71278 15.7258 1.59465 15.5459 1.54661C15.3667 1.49922 15.1737 1.52397 15.0123 1.61664L12.8492 2.86557C12.8509 2.37498 12.7346 1.84299 12.4827 1.40706C12.1071 0.75611 11.5008 0.290597 10.775 0.0962547C10.0506 -0.0966817 9.29188 0.00217712 8.64097 0.377081C7.73943 0.898234 7.20042 1.86845 7.23609 2.90939L7.24092 3.05771C7.24092 3.06319 7.24092 3.06802 7.24162 3.0735L7.3103 5.15033L5.57654 4.07001C5.57584 4.06931 5.57448 4.06865 5.57377 4.06795L5.44745 3.98897C4.56306 3.43899 3.4548 3.41836 2.5519 3.93951C1.90095 4.31512 1.43544 4.9214 1.2411 5.64721C1.04675 6.37301 1.14636 7.13103 1.52192 7.78198C1.77856 8.22565 2.13982 8.5706 2.55523 8.80895L0.351835 10.0541C0.0154622 10.2483 -0.099709 10.6783 0.0944461 11.0147L1.54733 13.4505C1.74148 13.7868 2.17147 13.902 2.50784 13.7079L17.1218 5.27024C17.4581 5.07613 17.5732 4.6461 17.3791 4.30973ZM4.66042 7.59345C3.98828 7.98002 3.12705 7.7502 2.73996 7.0789C2.35203 6.40737 2.5834 5.54493 3.25493 5.15769C3.70605 4.89609 4.26156 4.90705 4.70308 5.1824L6.69066 6.42125L4.66042 7.59345ZM11.4054 3.22406C11.3087 3.58627 11.0761 3.8895 10.751 4.07695L8.72019 5.24947L8.64097 2.8613C8.62382 2.34015 8.89368 1.85537 9.3441 1.59512C9.66819 1.40631 10.0472 1.35756 10.4112 1.45436C10.7737 1.55186 11.0772 1.78464 11.2646 2.11009C11.4528 2.43563 11.5029 2.86083 11.4054 3.22406Z" fill="url(#paint5_linear_40_120)"/>
<defs>
<linearGradient id="paint0_linear_40_120" x1="-1.07166e-08" y1="-1.04339e-07" x2="21" y2="25" gradientUnits="userSpaceOnUse">
<stop stop-color="#616EB8"/>
<stop offset="1" stop-color="#B4B8CD"/>
</linearGradient>
<linearGradient id="paint1_linear_40_120" x1="-1.07166e-08" y1="-1.04339e-07" x2="21" y2="25" gradientUnits="userSpaceOnUse">
<stop stop-color="#616EB8"/>
<stop offset="1" stop-color="#B4B8CD"/>
</linearGradient>
<linearGradient id="paint2_linear_40_120" x1="-1.07166e-08" y1="-1.04339e-07" x2="21" y2="25" gradientUnits="userSpaceOnUse">
<stop stop-color="#616EB8"/>
<stop offset="1" stop-color="#B4B8CD"/>
</linearGradient>
<linearGradient id="paint3_linear_40_120" x1="-1.07166e-08" y1="-1.04339e-07" x2="21" y2="25" gradientUnits="userSpaceOnUse">
<stop stop-color="#616EB8"/>
<stop offset="1" stop-color="#B4B8CD"/>
</linearGradient>
<linearGradient id="paint4_linear_40_120" x1="-1.07166e-08" y1="-1.04339e-07" x2="21" y2="25" gradientUnits="userSpaceOnUse">
<stop stop-color="#616EB8"/>
<stop offset="1" stop-color="#B4B8CD"/>
</linearGradient>
<linearGradient id="paint5_linear_40_120" x1="-1.07166e-08" y1="-1.04339e-07" x2="21" y2="25" gradientUnits="userSpaceOnUse">
<stop stop-color="#616EB8"/>
<stop offset="1" stop-color="#B4B8CD"/>
</linearGradient>
</defs>
</svg>
