<svg width="36" height="36" viewBox="0 0 36 36" fill="none" xmlns="http://www.w3.org/2000/svg">
<path d="M18 34.125C9.105 34.125 1.875 26.895 1.875 18C1.875 9.105 9.105 1.875 18 1.875C26.895 1.875 34.125 9.105 34.125 18C34.125 26.895 26.895 34.125 18 34.125ZM18 4.125C10.35 4.125 4.125 10.35 4.125 18C4.125 25.65 10.35 31.875 18 31.875C25.65 31.875 31.875 25.65 31.875 18C31.875 10.35 25.65 4.125 18 4.125Z" fill="#324DDC"/>
<path d="M15.87 23.3699C15.57 23.3699 15.285 23.2499 15.075 23.0399L10.83 18.7949C10.395 18.3599 10.395 17.6399 10.83 17.2049C11.265 16.7699 11.985 16.7699 12.42 17.2049L15.87 20.6549L23.58 12.9449C24.015 12.5099 24.735 12.5099 25.17 12.9449C25.605 13.3799 25.605 14.0999 25.17 14.5349L16.665 23.0399C16.455 23.2499 16.17 23.3699 15.87 23.3699Z" fill="#324DDC"/>
</svg>
