<svg width="91" height="42" viewBox="0 0 91 42" fill="none" xmlns="http://www.w3.org/2000/svg">
<path d="M0 20.9941C0 20.0543 0.373337 19.1614 1.02666 18.5035L18.3867 1.0221C19.74 -0.340699 21.98 -0.340699 23.3333 1.0221C24.6867 2.3849 24.6867 4.64056 23.3333 6.00336L11.9 17.5166H87.5C89.4133 17.5166 91 19.1144 91 21.0411C91 22.9678 89.4133 24.5186 87.5 24.5186H11.9467L23.3333 35.9849C24.6867 37.3477 24.6867 39.6034 23.3333 40.9662C22.6333 41.671 21.7467 42 20.86 42C19.9733 42 19.0867 41.671 18.3867 40.9662L1.07333 23.5317C0.746666 23.2028 0.466667 22.7799 0.279999 22.3099C0.279999 22.2629 0.279999 22.2159 0.23333 22.169C0.0933304 21.793 0 21.4171 0 20.9941Z" fill="#324DDC"/>
</svg>
