<svg width="61" height="61" viewBox="0 0 61 61" fill="none" xmlns="http://www.w3.org/2000/svg">
<path d="M43.4969 36.0638C42.7837 35.6974 39.2309 33.9569 38.57 33.7214C37.9092 33.4728 37.425 33.355 36.9474 34.0878C36.4632 34.8141 35.0892 36.4302 34.6573 36.9209C34.2386 37.4051 33.8133 37.464 33.1001 37.1041C28.8603 34.9842 26.0795 33.3223 23.2856 28.5263C22.5463 27.2504 24.025 27.342 25.4056 24.5874C25.6411 24.1032 25.5233 23.691 25.3401 23.3246C25.1569 22.9582 23.7175 19.4119 23.1155 17.9659C22.5332 16.5592 21.9313 16.7555 21.4929 16.7293C21.0741 16.7031 20.5965 16.7031 20.1123 16.7031C19.6281 16.7031 18.8495 16.8863 18.1887 17.5995C17.5278 18.3258 15.6631 20.0728 15.6631 23.619C15.6631 27.1653 18.2476 30.6004 18.6009 31.0846C18.9673 31.5688 23.6848 38.8445 30.9278 41.9786C35.5079 43.9546 37.3007 44.1247 39.5907 43.7845C40.9844 43.5751 43.8567 42.044 44.4521 40.3494C45.0476 38.6613 45.0476 37.2153 44.8709 36.9144C44.6942 36.5938 44.2101 36.4106 43.4969 36.0638Z" fill="white"/>
<path d="M57.3484 18.9539C55.8697 15.4403 53.7498 12.2866 51.0475 9.57783C48.3453 6.87559 45.1916 4.74912 41.6715 3.27695C38.0728 1.76553 34.2517 1 30.3129 1H30.182C26.217 1.01963 22.3763 1.80479 18.7645 3.34893C15.2771 4.84072 12.1496 6.96064 9.47352 9.66289C6.79744 12.3651 4.69715 15.5058 3.24461 19.0063C1.73973 22.6311 0.980742 26.4849 1.00037 30.4499C1.02 34.9907 2.10613 39.4988 4.141 43.5293V53.4746C4.141 55.1365 5.48885 56.4844 7.15076 56.4844H17.1026C21.1331 58.5192 25.6412 59.6054 30.182 59.625H30.3194C34.2387 59.625 38.0401 58.866 41.6191 57.3808C45.1196 55.9217 48.2668 53.8279 50.9625 51.1519C53.6647 48.4758 55.7912 45.3482 57.2764 41.8608C58.8206 38.2491 59.6057 34.4084 59.6254 30.4434C59.645 26.4587 58.8729 22.5918 57.3484 18.9539V18.9539ZM47.462 47.6121C42.8754 52.1529 36.7904 54.6523 30.3129 54.6523H30.2016C26.2562 54.6327 22.337 53.6513 18.8758 51.8062L18.3262 51.5117H9.11365V42.2992L8.81922 41.7496C6.9741 38.2884 5.99266 34.3691 5.97303 30.4237C5.94686 23.9004 8.43973 17.7762 13.0133 13.1634C17.5803 8.55059 23.6848 5.99883 30.2082 5.97266H30.3194C33.5909 5.97266 36.7642 6.60732 39.7544 7.86357C42.6725 9.08711 45.2897 10.8472 47.5405 13.0979C49.7847 15.3422 51.5513 17.9659 52.7749 20.8841C54.0442 23.9069 54.6789 27.113 54.6658 30.4237C54.6265 36.9405 52.0682 43.0451 47.462 47.6121V47.6121Z" fill="white"/>
</svg>
