<svg width="61" height="61" viewBox="0 0 61 61" fill="none" xmlns="http://www.w3.org/2000/svg">
<g clip-path="url(#clip0_67_151)">
<path fill-rule="evenodd" clip-rule="evenodd" d="M60.3 30.15C60.3 46.8003 46.8003 60.3 30.15 60.3C13.4997 60.3 0 46.8003 0 30.15C0 13.4997 13.4997 0 30.15 0C46.8003 0 60.3 13.4997 60.3 30.15ZM31.2304 22.2582C28.2983 23.4768 22.4366 26.0019 13.6479 29.8309C12.2208 30.3987 11.4721 30.954 11.4042 31.4967C11.2887 32.4163 12.4394 32.7781 14.0022 33.268C14.2157 33.3358 14.4368 33.4037 14.663 33.4791C16.2031 33.979 18.2734 34.5645 19.3488 34.5871C20.3261 34.6072 21.4166 34.2052 22.62 33.3811C30.8309 27.836 35.0695 25.0345 35.3358 24.9742C35.5242 24.9315 35.7855 24.8763 35.9614 25.0345C36.1373 25.1903 36.1197 25.4868 36.1021 25.5672C35.9865 26.0521 31.4791 30.2455 29.1425 32.4163C28.4139 33.0921 27.8988 33.572 27.7933 33.6826C27.5571 33.9263 27.3159 34.16 27.0847 34.3836C25.6526 35.7604 24.5823 36.7956 27.1451 38.484C28.3762 39.2955 29.3611 39.9663 30.3435 40.6347C31.4163 41.3658 32.4866 42.0944 33.8735 43.0039C34.2253 43.2351 34.562 43.4738 34.8911 43.7075C36.1398 44.5994 37.2629 45.3984 38.6498 45.2727C39.4538 45.1974 40.2879 44.4411 40.71 42.1824C41.7075 36.8408 43.6723 25.2732 44.127 20.5045C44.1547 20.1086 44.1379 19.7108 44.0768 19.3186C44.0402 19.0019 43.886 18.7104 43.6446 18.5021C43.2854 18.2081 42.7276 18.1453 42.4763 18.1503C41.3432 18.1704 39.6045 18.7759 31.2304 22.2582Z" fill="white"/>
</g>
<defs>
<clipPath id="clip0_67_151">
<rect width="60.3" height="60.3" fill="white"/>
</clipPath>
</defs>
</svg>
