<svg width="100" height="100" viewBox="0 0 100 100" fill="none" xmlns="http://www.w3.org/2000/svg">
<path d="M8.69873 26.1547L50 2.3094L91.3013 26.1547V73.8453L50 97.6906L8.69873 73.8453V26.1547Z" stroke="#324DDC" stroke-width="4"/>
<path d="M66.6042 43.2292H60.4792C57.8333 43.2292 56.25 41.6459 56.25 39V32.875C56.25 30.2292 57.8333 28.6459 60.4792 28.6459H66.6042C69.25 28.6459 70.8333 30.2292 70.8333 32.875V39C70.8333 41.6459 69.25 43.2292 66.6042 43.2292ZM67.0625 36.3334C66.8125 36.0834 66.4792 35.9584 66.1458 35.9584C65.8125 35.9584 65.4792 36.0834 65.2292 36.3334L64.8542 36.7084V32.0417C64.8542 31.3125 64.2708 30.7292 63.5417 30.7292C62.8125 30.7292 62.2292 31.3125 62.2292 32.0417V36.7084L61.8542 36.3334C61.3542 35.8334 60.5208 35.8334 60.0208 36.3334C59.5208 36.8334 59.5208 37.6667 60.0208 38.1667L62.625 40.7709C62.7292 40.875 62.875 40.9584 63.0208 41.0209C63.0625 41.0417 63.1042 41.0417 63.1458 41.0625C63.25 41.1042 63.3542 41.125 63.4792 41.125C63.5208 41.125 63.5625 41.125 63.6042 41.125C63.75 41.125 63.875 41.1042 64.0208 41.0417C64.0417 41.0417 64.0417 41.0417 64.0625 41.0417C64.2083 40.9792 64.3333 40.8959 64.4375 40.7917C64.4583 40.7709 64.4583 40.7709 64.4792 40.7709L67.0833 38.1667C67.5833 37.6667 67.5833 36.8334 67.0625 36.3334Z" fill="#324DDC"/>
<path d="M29.1667 48.875V59.2916C29.1667 64.0625 33.0209 67.9166 37.7917 67.9166H62.1875C66.9584 67.9166 70.8334 64.0416 70.8334 59.2708V48.875C70.8334 47.4791 69.7084 46.3541 68.3125 46.3541H31.6875C30.2917 46.3541 29.1667 47.4791 29.1667 48.875ZM41.6667 60.9375H37.5C36.6459 60.9375 35.9375 60.2291 35.9375 59.375C35.9375 58.5208 36.6459 57.8125 37.5 57.8125H41.6667C42.5209 57.8125 43.2292 58.5208 43.2292 59.375C43.2292 60.2291 42.5209 60.9375 41.6667 60.9375ZM55.2084 60.9375H46.875C46.0209 60.9375 45.3125 60.2291 45.3125 59.375C45.3125 58.5208 46.0209 57.8125 46.875 57.8125H55.2084C56.0625 57.8125 56.7709 58.5208 56.7709 59.375C56.7709 60.2291 56.0625 60.9375 55.2084 60.9375Z" fill="#324DDC"/>
<path d="M53.125 34.6042V40.7084C53.125 42.1042 52 43.2292 50.6042 43.2292H31.6875C30.2709 43.2292 29.1667 42.0625 29.1667 40.6667C29.1875 38.3125 30.125 36.1667 31.6875 34.6042C33.25 33.0417 35.4167 32.0834 37.7917 32.0834H50.6042C52 32.0834 53.125 33.2084 53.125 34.6042Z" fill="#324DDC"/>
</svg>
