<svg width="44" height="44" viewBox="0 0 44 44" fill="none" xmlns="http://www.w3.org/2000/svg">
<path d="M31.4455 26.1203C30.9346 25.8578 28.3893 24.6109 27.9158 24.4422C27.4424 24.2641 27.0955 24.1797 26.7533 24.7047C26.4064 25.225 25.4221 26.3828 25.1127 26.7344C24.8127 27.0813 24.508 27.1234 23.9971 26.8656C20.9596 25.3469 18.9674 24.1563 16.9658 20.7203C16.4361 19.8063 17.4955 19.8719 18.4846 17.8984C18.6533 17.5516 18.5689 17.2563 18.4377 16.9938C18.3064 16.7313 17.2752 14.1906 16.8439 13.1547C16.4268 12.1469 15.9955 12.2875 15.6814 12.2687C15.3814 12.25 15.0393 12.25 14.6924 12.25C14.3455 12.25 13.7877 12.3813 13.3143 12.8922C12.8408 13.4125 11.5049 14.6641 11.5049 17.2047C11.5049 19.7453 13.3564 22.2063 13.6096 22.5531C13.8721 22.9 17.2518 28.1125 22.4408 30.3578C25.7221 31.7734 27.0064 31.8953 28.6471 31.6516C29.6455 31.5016 31.7033 30.4047 32.1299 29.1906C32.5564 27.9813 32.5564 26.9453 32.4299 26.7297C32.3033 26.5 31.9564 26.3688 31.4455 26.1203Z" fill="black"/>
<path d="M41.369 13.8625C40.3096 11.3453 38.7909 9.08594 36.855 7.14531C34.919 5.20938 32.6596 3.68594 30.1378 2.63125C27.5596 1.54844 24.8221 1 22.0003 1H21.9065C19.0659 1.01406 16.3143 1.57656 13.7268 2.68281C11.2284 3.75156 8.98777 5.27031 7.07058 7.20625C5.15339 9.14219 3.6487 11.3922 2.60808 13.9C1.52995 16.4969 0.986203 19.2578 1.00027 22.0984C1.01433 25.3516 1.79245 28.5812 3.25027 31.4688V38.5938C3.25027 39.7844 4.21589 40.75 5.40652 40.75H12.5362C15.4237 42.2078 18.6534 42.9859 21.9065 43H22.005C24.8128 43 27.5362 42.4562 30.1003 41.3922C32.6081 40.3469 34.8628 38.8469 36.794 36.9297C38.73 35.0125 40.2534 32.7719 41.3175 30.2734C42.4237 27.6859 42.9862 24.9344 43.0003 22.0938C43.0143 19.2391 42.4612 16.4688 41.369 13.8625ZM34.2862 34.3938C31.0003 37.6469 26.6409 39.4375 22.0003 39.4375H21.9206C19.094 39.4234 16.2862 38.7203 13.8065 37.3984L13.4128 37.1875H6.81277V30.5875L6.60183 30.1937C5.27995 27.7141 4.57683 24.9062 4.56277 22.0797C4.54402 17.4062 6.32995 13.0187 9.60652 9.71406C12.8784 6.40937 17.2518 4.58125 21.9253 4.5625H22.005C24.3487 4.5625 26.6221 5.01719 28.7643 5.91719C30.855 6.79375 32.73 8.05469 34.3425 9.66719C35.9503 11.275 37.2159 13.1547 38.0925 15.2453C39.0018 17.4109 39.4565 19.7078 39.4471 22.0797C39.419 26.7484 37.5862 31.1219 34.2862 34.3938Z" fill="black"/>
</svg>
