<?xml version="1.0" standalone="no"?>
<!DOCTYPE svg PUBLIC "-//W3C//DTD SVG 20010904//EN"
 "http://www.w3.org/TR/2001/REC-SVG-20010904/DTD/svg10.dtd">
<svg version="1.0" xmlns="http://www.w3.org/2000/svg"
 width="700.000000pt" height="700.000000pt" viewBox="0 0 700.000000 700.000000"
 preserveAspectRatio="xMidYMid meet">
<metadata>
Created by potrace 1.14, written by Peter Selinger 2001-2017
</metadata>
<g transform="translate(0.000000,700.000000) scale(0.100000,-0.100000)"
fill="#000000" stroke="none">
<path d="M3354 6410 c-671 -46 -1239 -358 -1568 -863 -77 -117 -176 -326 -220
-464 -43 -135 -81 -320 -95 -467 -7 -73 -11 -745 -11 -2018 l0 -1908 715 0
714 0 4 1943 3 1942 22 95 c37 165 89 269 176 356 104 103 237 154 406 154
164 0 279 -42 385 -141 206 -193 221 -555 31 -744 -125 -123 -314 -175 -638
-175 l-148 0 0 -564 0 -564 333 -4 c302 -4 339 -6 410 -26 256 -70 396 -227
413 -462 16 -205 -80 -382 -255 -474 -138 -72 -184 -79 -563 -84 l-338 -4 0
-629 0 -629 318 0 c454 0 701 17 957 67 365 70 657 219 898 457 281 279 430
605 456 1005 43 641 -259 1159 -849 1456 l-73 37 94 61 c128 84 308 263 377
377 219 357 213 856 -14 1301 -158 308 -420 565 -745 734 -274 141 -523 210
-849 235 -147 11 -179 11 -346 0z"/>
</g>
</svg>
